<svg version="1.1" viewBox="0.0 0.0 600.0 371.0" fill="none" stroke="none" stroke-linecap="square" stroke-miterlimit="10" width="600" height="371" xmlns:xlink="http://www.w3.org/1999/xlink" xmlns="http://www.w3.org/2000/svg"><path fill="#ffffff" fill-opacity="0.0" d="M0 0L600.0 0L600.0 371.0L0 371.0L0 0Z" fill-rule="nonzero"/><path stroke="#333333" stroke-width="1.0" stroke-linecap="butt" d="M61.5 330.5L496.5 330.5" fill-rule="nonzero"/><path stroke="#cccccc" stroke-width="1.0" stroke-linecap="butt" d="M61.5 264.5L496.5 264.5" fill-rule="nonzero"/><path stroke="#cccccc" stroke-width="1.0" stroke-linecap="butt" d="M61.5 197.5L496.5 197.5" fill-rule="nonzero"/><path stroke="#cccccc" stroke-width="1.0" stroke-linecap="butt" d="M61.5 131.5L496.5 131.5" fill-rule="nonzero"/><path stroke="#cccccc" stroke-width="1.0" stroke-linecap="butt" d="M61.5 64.5L496.5 64.5" fill-rule="nonzero"/><clipPath id="id_0"><path d="M61.55 64.916664L496.74777 64.916664L496.74777 330.45L61.55 330.45L61.55 64.916664Z" clip-rule="nonzero"/></clipPath><path stroke="#000000" stroke-width="2.0" stroke-linecap="butt" stroke-opacity="0.0" clip-path="url(#id_0)" d="M191.0 330.0L107.0 330.0L107.0 101.0L191.0 101.0Z" fill-rule="nonzero"/><path fill="#4285f4" clip-path="url(#id_0)" d="M191.0 330.0L107.0 330.0L107.0 101.0L191.0 101.0Z" fill-rule="nonzero"/><path stroke="#000000" stroke-width="2.0" stroke-linecap="butt" stroke-opacity="0.0" clip-path="url(#id_0)" d="M321.0 330.0L237.0 330.0L237.0 112.0L321.0 112.0Z" fill-rule="nonzero"/><path fill="#4285f4" clip-path="url(#id_0)" d="M321.0 330.0L237.0 330.0L237.0 112.0L321.0 112.0Z" fill-rule="nonzero"/><path stroke="#000000" stroke-width="2.0" stroke-linecap="butt" stroke-opacity="0.0" clip-path="url(#id_0)" d="M451.0 330.0L367.0 330.0L367.0 85.0L451.0 85.0Z" fill-rule="nonzero"/><path fill="#4285f4" clip-path="url(#id_0)" d="M451.0 330.0L367.0 330.0L367.0 85.0L451.0 85.0Z" fill-rule="nonzero"/><path stroke="#000000" stroke-width="2.0" stroke-linecap="butt" stroke-opacity="0.0" clip-path="url(#id_0)" d="M191.0 101.0L107.0 101.0L107.0 67.0C107.0 65.89543 107.89543 65.0 109.0 65.0L189.0 65.0C190.10457 65.0 191.0 65.89543 191.0 67.0Z" fill-rule="nonzero"/><path fill="#cccccc" clip-path="url(#id_0)" d="M191.0 101.0L107.0 101.0L107.0 67.0C107.0 65.89543 107.89543 65.0 109.0 65.0L189.0 65.0C190.10457 65.0 191.0 65.89543 191.0 67.0Z" fill-rule="nonzero"/><path stroke="#000000" stroke-width="2.0" stroke-linecap="butt" stroke-opacity="0.0" clip-path="url(#id_0)" d="M321.0 112.0L237.0 112.0L237.0 67.0C237.0 65.89543 237.89543 65.0 239.0 65.0L319.0 65.0C320.10458 65.0 321.0 65.89543 321.0 67.0Z" fill-rule="nonzero"/><path fill="#cccccc" clip-path="url(#id_0)" d="M321.0 112.0L237.0 112.0L237.0 67.0C237.0 65.89543 237.89543 65.0 239.0 65.0L319.0 65.0C320.10458 65.0 321.0 65.89543 321.0 67.0Z" fill-rule="nonzero"/><path stroke="#000000" stroke-width="2.0" stroke-linecap="butt" stroke-opacity="0.0" clip-path="url(#id_0)" d="M451.0 85.0L367.0 85.0L367.0 67.0C367.0 65.89543 367.89542 65.0 369.0 65.0L449.0 65.0C450.10458 65.0 451.0 65.89543 451.0 67.0Z" fill-rule="nonzero"/><path fill="#cccccc" clip-path="url(#id_0)" d="M451.0 85.0L367.0 85.0L367.0 67.0C367.0 65.89543 367.89542 65.0 369.0 65.0L449.0 65.0C450.10458 65.0 451.0 65.89543 451.0 67.0Z" fill-rule="nonzero"/><path stroke="#4285f4" stroke-width="3.0" stroke-linejoin="round" stroke-linecap="round" d="M138.39062 111.5167Q138.39062 112.157326 138.04688 112.657326Q137.70312 113.157326 137.14062 113.438576Q137.79688 113.719826 138.1875 114.282326Q138.57812 114.8292 138.57812 115.532326Q138.57812 116.626076 137.82812 117.29795Q137.09375 117.9542 135.875 117.9542Q134.64062 117.9542 133.89062 117.29795Q133.15625 116.626076 133.15625 115.532326Q133.15625 114.8292 133.53125 114.282326Q133.90625 113.719826 134.57812 113.438576Q134.01562 113.157326 133.6875 112.657326Q133.35938 112.157326 133.35938 111.5167Q133.35938 110.438576 134.04688 109.813576Q134.73438 109.17295 135.875 109.17295Q137.0 109.17295 137.6875 109.813576Q138.39062 110.438576 138.39062 111.5167ZM137.5 115.501076Q137.5 114.782326 137.04688 114.344826Q136.59375 113.8917 135.85938 113.8917Q135.125 113.8917 134.67188 114.344826Q134.23438 114.782326 134.23438 115.5167Q134.23438 116.23545 134.67188 116.657326Q135.10938 117.063576 135.875 117.063576Q136.625 117.063576 137.0625 116.6417Q137.5 116.219826 137.5 115.501076ZM135.875 110.063576Q135.23438 110.063576 134.82812 110.469826Q134.4375 110.86045 134.4375 111.54795Q134.4375 112.188576 134.82812 112.594826Q135.21875 113.001076 135.85938 113.001076Q136.51562 113.001076 136.90625 112.594826Q137.29688 112.188576 137.29688 111.54795Q137.29688 110.8917 136.89062 110.48545Q136.48438 110.063576 135.875 110.063576ZM144.46875 109.29795L144.46875 110.2042L144.26562 110.2042Q143.0 110.23545 142.25 110.969826Q141.5 111.688576 141.375 113.001076Q142.0625 112.23545 143.21875 112.23545Q144.32812 112.23545 145.0 113.0167Q145.67188 113.79795 145.67188 115.04795Q145.67188 116.36045 144.95312 117.157326Q144.23438 117.9542 143.01562 117.9542Q141.79688 117.9542 141.03125 117.0167Q140.28125 116.063576 140.28125 114.5792L140.28125 114.17295Q140.28125 111.813576 141.28125 110.563576Q142.28125 109.313576 144.26562 109.29795L144.46875 109.29795ZM143.04688 113.1417Q142.48438 113.1417 142.01562 113.469826Q141.54688 113.79795 141.35938 114.313576L141.35938 114.7042Q141.35938 115.7667 141.82812 116.407326Q142.3125 117.04795 143.01562 117.04795Q143.75 117.04795 144.17188 116.5167Q144.59375 115.969826 144.59375 115.094826Q144.59375 114.219826 144.17188 113.688576Q143.75 113.1417 143.04688 113.1417ZM147.34375 117.2667Q147.34375 116.98545 147.5 116.79795Q147.67188 116.61045 148.0 116.61045Q148.34375 116.61045 148.51562 116.79795Q148.6875 116.98545 148.6875 117.2667Q148.6875 117.532326 148.51562 117.719826Q148.34375 117.8917 148.0 117.8917Q147.67188 117.8917 147.5 117.719826Q147.34375 117.532326 147.34375 117.2667ZM154.78125 114.969826L155.96875 114.969826L155.96875 115.844826L154.78125 115.844826L154.78125 117.8292L153.70312 117.8292L153.70312 115.844826L149.8125 115.844826L149.8125 115.2042L153.625 109.29795L154.78125 109.29795L154.78125 114.969826ZM151.04688 114.969826L153.70312 114.969826L153.70312 110.782326L153.5625 111.0167L151.04688 114.969826ZM157.10938 110.938576Q157.10938 110.17295 157.59375 109.67295Q158.09375 109.17295 158.85938 109.17295Q159.64062 109.17295 160.125 109.67295Q160.60938 110.17295 160.60938 110.969826L160.60938 111.3917Q160.60938 112.157326 160.10938 112.657326Q159.625 113.1417 158.875 113.1417Q158.10938 113.1417 157.60938 112.657326Q157.10938 112.157326 157.10938 111.344826L157.10938 110.938576ZM157.92188 111.3917Q157.92188 111.844826 158.17188 112.1417Q158.4375 112.438576 158.875 112.438576Q159.29688 112.438576 159.54688 112.157326Q159.79688 111.86045 159.79688 111.36045L159.79688 110.938576Q159.79688 110.48545 159.54688 110.188576Q159.29688 109.876076 158.85938 109.876076Q158.42188 109.876076 158.17188 110.188576Q157.92188 110.48545 157.92188 110.9542L157.92188 111.3917ZM161.26562 115.73545Q161.26562 114.969826 161.75 114.48545Q162.25 113.98545 163.01562 113.98545Q163.78125 113.98545 164.26562 114.48545Q164.76562 114.969826 164.76562 115.782326L164.76562 116.188576Q164.76562 116.9542 164.28125 117.4542Q163.79688 117.9542 163.03125 117.9542Q162.26562 117.9542 161.76562 117.469826Q161.26562 116.969826 161.26562 116.157326L161.26562 115.73545ZM162.07812 116.188576Q162.07812 116.657326 162.32812 116.9542Q162.59375 117.251076 163.03125 117.251076Q163.45312 117.251076 163.70312 116.969826Q163.95312 116.67295 163.95312 116.17295L163.95312 115.73545Q163.95312 115.2667 163.6875 114.98545Q163.4375 114.688576 163.01562 114.688576Q162.59375 114.688576 162.32812 114.98545Q162.07812 115.2667 162.07812 115.7667L162.07812 116.188576ZM159.125 117.188576L158.5 116.79795L162.67188 110.126076L163.28125 110.5167L159.125 117.188576Z" fill-rule="nonzero"/><path fill="#ffffff" d="M138.39062 111.5167Q138.39062 112.157326 138.04688 112.657326Q137.70312 113.157326 137.14062 113.438576Q137.79688 113.719826 138.1875 114.282326Q138.57812 114.8292 138.57812 115.532326Q138.57812 116.626076 137.82812 117.29795Q137.09375 117.9542 135.875 117.9542Q134.64062 117.9542 133.89062 117.29795Q133.15625 116.626076 133.15625 115.532326Q133.15625 114.8292 133.53125 114.282326Q133.90625 113.719826 134.57812 113.438576Q134.01562 113.157326 133.6875 112.657326Q133.35938 112.157326 133.35938 111.5167Q133.35938 110.438576 134.04688 109.813576Q134.73438 109.17295 135.875 109.17295Q137.0 109.17295 137.6875 109.813576Q138.39062 110.438576 138.39062 111.5167ZM137.5 115.501076Q137.5 114.782326 137.04688 114.344826Q136.59375 113.8917 135.85938 113.8917Q135.125 113.8917 134.67188 114.344826Q134.23438 114.782326 134.23438 115.5167Q134.23438 116.23545 134.67188 116.657326Q135.10938 117.063576 135.875 117.063576Q136.625 117.063576 137.0625 116.6417Q137.5 116.219826 137.5 115.501076ZM135.875 110.063576Q135.23438 110.063576 134.82812 110.469826Q134.4375 110.86045 134.4375 111.54795Q134.4375 112.188576 134.82812 112.594826Q135.21875 113.001076 135.85938 113.001076Q136.51562 113.001076 136.90625 112.594826Q137.29688 112.188576 137.29688 111.54795Q137.29688 110.8917 136.89062 110.48545Q136.48438 110.063576 135.875 110.063576ZM144.46875 109.29795L144.46875 110.2042L144.26562 110.2042Q143.0 110.23545 142.25 110.969826Q141.5 111.688576 141.375 113.001076Q142.0625 112.23545 143.21875 112.23545Q144.32812 112.23545 145.0 113.0167Q145.67188 113.79795 145.67188 115.04795Q145.67188 116.36045 144.95312 117.157326Q144.23438 117.9542 143.01562 117.9542Q141.79688 117.9542 141.03125 117.0167Q140.28125 116.063576 140.28125 114.5792L140.28125 114.17295Q140.28125 111.813576 141.28125 110.563576Q142.28125 109.313576 144.26562 109.29795L144.46875 109.29795ZM143.04688 113.1417Q142.48438 113.1417 142.01562 113.469826Q141.54688 113.79795 141.35938 114.313576L141.35938 114.7042Q141.35938 115.7667 141.82812 116.407326Q142.3125 117.04795 143.01562 117.04795Q143.75 117.04795 144.17188 116.5167Q144.59375 115.969826 144.59375 115.094826Q144.59375 114.219826 144.17188 113.688576Q143.75 113.1417 143.04688 113.1417ZM147.34375 117.2667Q147.34375 116.98545 147.5 116.79795Q147.67188 116.61045 148.0 116.61045Q148.34375 116.61045 148.51562 116.79795Q148.6875 116.98545 148.6875 117.2667Q148.6875 117.532326 148.51562 117.719826Q148.34375 117.8917 148.0 117.8917Q147.67188 117.8917 147.5 117.719826Q147.34375 117.532326 147.34375 117.2667ZM154.78125 114.969826L155.96875 114.969826L155.96875 115.844826L154.78125 115.844826L154.78125 117.8292L153.70312 117.8292L153.70312 115.844826L149.8125 115.844826L149.8125 115.2042L153.625 109.29795L154.78125 109.29795L154.78125 114.969826ZM151.04688 114.969826L153.70312 114.969826L153.70312 110.782326L153.5625 111.0167L151.04688 114.969826ZM157.10938 110.938576Q157.10938 110.17295 157.59375 109.67295Q158.09375 109.17295 158.85938 109.17295Q159.64062 109.17295 160.125 109.67295Q160.60938 110.17295 160.60938 110.969826L160.60938 111.3917Q160.60938 112.157326 160.10938 112.657326Q159.625 113.1417 158.875 113.1417Q158.10938 113.1417 157.60938 112.657326Q157.10938 112.157326 157.10938 111.344826L157.10938 110.938576ZM157.92188 111.3917Q157.92188 111.844826 158.17188 112.1417Q158.4375 112.438576 158.875 112.438576Q159.29688 112.438576 159.54688 112.157326Q159.79688 111.86045 159.79688 111.36045L159.79688 110.938576Q159.79688 110.48545 159.54688 110.188576Q159.29688 109.876076 158.85938 109.876076Q158.42188 109.876076 158.17188 110.188576Q157.92188 110.48545 157.92188 110.9542L157.92188 111.3917ZM161.26562 115.73545Q161.26562 114.969826 161.75 114.48545Q162.25 113.98545 163.01562 113.98545Q163.78125 113.98545 164.26562 114.48545Q164.76562 114.969826 164.76562 115.782326L164.76562 116.188576Q164.76562 116.9542 164.28125 117.4542Q163.79688 117.9542 163.03125 117.9542Q162.26562 117.9542 161.76562 117.469826Q161.26562 116.969826 161.26562 116.157326L161.26562 115.73545ZM162.07812 116.188576Q162.07812 116.657326 162.32812 116.9542Q162.59375 117.251076 163.03125 117.251076Q163.45312 117.251076 163.70312 116.969826Q163.95312 116.67295 163.95312 116.17295L163.95312 115.73545Q163.95312 115.2667 163.6875 114.98545Q163.4375 114.688576 163.01562 114.688576Q162.59375 114.688576 162.32812 114.98545Q162.07812 115.2667 162.07812 115.7667L162.07812 116.188576ZM159.125 117.188576L158.5 116.79795L162.67188 110.126076L163.28125 110.5167L159.125 117.188576Z" fill-rule="nonzero"/><path stroke="#4285f4" stroke-width="3.0" stroke-linejoin="round" stroke-linecap="round" d="M268.39062 122.13803Q268.39062 122.778656 268.04688 123.278656Q267.70312 123.778656 267.14062 124.059906Q267.79688 124.341156 268.1875 124.903656Q268.57812 125.45053 268.57812 126.153656Q268.57812 127.247406 267.82812 127.91928Q267.09375 128.57553 265.875 128.57553Q264.64062 128.57553 263.89062 127.91928Q263.15625 127.247406 263.15625 126.153656Q263.15625 125.45053 263.53125 124.903656Q263.90625 124.341156 264.57812 124.059906Q264.01562 123.778656 263.6875 123.278656Q263.35938 122.778656 263.35938 122.13803Q263.35938 121.059906 264.04688 120.434906Q264.73438 119.79428 265.875 119.79428Q267.0 119.79428 267.6875 120.434906Q268.39062 121.059906 268.39062 122.13803ZM267.5 126.122406Q267.5 125.403656 267.04688 124.966156Q266.59375 124.51303 265.85938 124.51303Q265.125 124.51303 264.67188 124.966156Q264.23438 125.403656 264.23438 126.13803Q264.23438 126.85678 264.67188 127.278656Q265.10938 127.684906 265.875 127.684906Q266.625 127.684906 267.0625 127.26303Q267.5 126.841156 267.5 126.122406ZM265.875 120.684906Q265.23438 120.684906 264.82812 121.091156Q264.4375 121.48178 264.4375 122.16928Q264.4375 122.809906 264.82812 123.216156Q265.21875 123.622406 265.85938 123.622406Q266.51562 123.622406 266.90625 123.216156Q267.29688 122.809906 267.29688 122.16928Q267.29688 121.51303 266.89062 121.10678Q266.48438 120.684906 265.875 120.684906ZM275.79688 128.45053L270.20312 128.45053L270.20312 127.66928L273.15625 124.38803Q273.8125 123.63803 274.0625 123.184906Q274.3125 122.716156 274.3125 122.216156Q274.3125 121.54428 273.90625 121.122406Q273.51562 120.684906 272.82812 120.684906Q272.03125 120.684906 271.57812 121.153656Q271.125 121.60678 271.125 122.434906L270.04688 122.434906Q270.04688 121.247406 270.79688 120.528656Q271.5625 119.79428 272.82812 119.79428Q274.03125 119.79428 274.71875 120.41928Q275.40625 121.04428 275.40625 122.091156Q275.40625 123.341156 273.79688 125.091156L271.51562 127.559906L275.79688 127.559906L275.79688 128.45053ZM277.34375 127.88803Q277.34375 127.60678 277.5 127.41928Q277.67188 127.23178 278.0 127.23178Q278.34375 127.23178 278.51562 127.41928Q278.6875 127.60678 278.6875 127.88803Q278.6875 128.15366 278.51562 128.34116Q278.34375 128.51303 278.0 128.51303Q277.67188 128.51303 277.5 128.34116Q277.34375 128.15366 277.34375 127.88803ZM284.78125 125.591156L285.96875 125.591156L285.96875 126.466156L284.78125 126.466156L284.78125 128.45053L283.70312 128.45053L283.70312 126.466156L279.8125 126.466156L279.8125 125.82553L283.625 119.91928L284.78125 119.91928L284.78125 125.591156ZM281.04688 125.591156L283.70312 125.591156L283.70312 121.403656L283.5625 121.63803L281.04688 125.591156ZM287.10938 121.559906Q287.10938 120.79428 287.59375 120.29428Q288.09375 119.79428 288.85938 119.79428Q289.64062 119.79428 290.125 120.29428Q290.60938 120.79428 290.60938 121.591156L290.60938 122.01303Q290.60938 122.778656 290.10938 123.278656Q289.625 123.76303 288.875 123.76303Q288.10938 123.76303 287.60938 123.278656Q287.10938 122.778656 287.10938 121.966156L287.10938 121.559906ZM287.92188 122.01303Q287.92188 122.466156 288.17188 122.76303Q288.4375 123.059906 288.875 123.059906Q289.29688 123.059906 289.54688 122.778656Q289.79688 122.48178 289.79688 121.98178L289.79688 121.559906Q289.79688 121.10678 289.54688 120.809906Q289.29688 120.497406 288.85938 120.497406Q288.42188 120.497406 288.17188 120.809906Q287.92188 121.10678 287.92188 121.57553L287.92188 122.01303ZM291.26562 126.35678Q291.26562 125.591156 291.75 125.10678Q292.25 124.60678 293.01562 124.60678Q293.78125 124.60678 294.26562 125.10678Q294.76562 125.591156 294.76562 126.403656L294.76562 126.809906Q294.76562 127.57553 294.28125 128.07553Q293.79688 128.57553 293.03125 128.57553Q292.26562 128.57553 291.76562 128.09116Q291.26562 127.591156 291.26562 126.778656L291.26562 126.35678ZM292.07812 126.809906Q292.07812 127.278656 292.32812 127.57553Q292.59375 127.872406 293.03125 127.872406Q293.45312 127.872406 293.70312 127.591156Q293.95312 127.29428 293.95312 126.79428L293.95312 126.35678Q293.95312 125.88803 293.6875 125.60678Q293.4375 125.309906 293.01562 125.309906Q292.59375 125.309906 292.32812 125.60678Q292.07812 125.88803 292.07812 126.38803L292.07812 126.809906ZM289.125 127.809906L288.5 127.41928L292.67188 120.747406L293.28125 121.13803L289.125 127.809906Z" fill-rule="nonzero"/><path fill="#ffffff" d="M268.39062 122.13803Q268.39062 122.778656 268.04688 123.278656Q267.70312 123.778656 267.14062 124.059906Q267.79688 124.341156 268.1875 124.903656Q268.57812 125.45053 268.57812 126.153656Q268.57812 127.247406 267.82812 127.91928Q267.09375 128.57553 265.875 128.57553Q264.64062 128.57553 263.89062 127.91928Q263.15625 127.247406 263.15625 126.153656Q263.15625 125.45053 263.53125 124.903656Q263.90625 124.341156 264.57812 124.059906Q264.01562 123.778656 263.6875 123.278656Q263.35938 122.778656 263.35938 122.13803Q263.35938 121.059906 264.04688 120.434906Q264.73438 119.79428 265.875 119.79428Q267.0 119.79428 267.6875 120.434906Q268.39062 121.059906 268.39062 122.13803ZM267.5 126.122406Q267.5 125.403656 267.04688 124.966156Q266.59375 124.51303 265.85938 124.51303Q265.125 124.51303 264.67188 124.966156Q264.23438 125.403656 264.23438 126.13803Q264.23438 126.85678 264.67188 127.278656Q265.10938 127.684906 265.875 127.684906Q266.625 127.684906 267.0625 127.26303Q267.5 126.841156 267.5 126.122406ZM265.875 120.684906Q265.23438 120.684906 264.82812 121.091156Q264.4375 121.48178 264.4375 122.16928Q264.4375 122.809906 264.82812 123.216156Q265.21875 123.622406 265.85938 123.622406Q266.51562 123.622406 266.90625 123.216156Q267.29688 122.809906 267.29688 122.16928Q267.29688 121.51303 266.89062 121.10678Q266.48438 120.684906 265.875 120.684906ZM275.79688 128.45053L270.20312 128.45053L270.20312 127.66928L273.15625 124.38803Q273.8125 123.63803 274.0625 123.184906Q274.3125 122.716156 274.3125 122.216156Q274.3125 121.54428 273.90625 121.122406Q273.51562 120.684906 272.82812 120.684906Q272.03125 120.684906 271.57812 121.153656Q271.125 121.60678 271.125 122.434906L270.04688 122.434906Q270.04688 121.247406 270.79688 120.528656Q271.5625 119.79428 272.82812 119.79428Q274.03125 119.79428 274.71875 120.41928Q275.40625 121.04428 275.40625 122.091156Q275.40625 123.341156 273.79688 125.091156L271.51562 127.559906L275.79688 127.559906L275.79688 128.45053ZM277.34375 127.88803Q277.34375 127.60678 277.5 127.41928Q277.67188 127.23178 278.0 127.23178Q278.34375 127.23178 278.51562 127.41928Q278.6875 127.60678 278.6875 127.88803Q278.6875 128.15366 278.51562 128.34116Q278.34375 128.51303 278.0 128.51303Q277.67188 128.51303 277.5 128.34116Q277.34375 128.15366 277.34375 127.88803ZM284.78125 125.591156L285.96875 125.591156L285.96875 126.466156L284.78125 126.466156L284.78125 128.45053L283.70312 128.45053L283.70312 126.466156L279.8125 126.466156L279.8125 125.82553L283.625 119.91928L284.78125 119.91928L284.78125 125.591156ZM281.04688 125.591156L283.70312 125.591156L283.70312 121.403656L283.5625 121.63803L281.04688 125.591156ZM287.10938 121.559906Q287.10938 120.79428 287.59375 120.29428Q288.09375 119.79428 288.85938 119.79428Q289.64062 119.79428 290.125 120.29428Q290.60938 120.79428 290.60938 121.591156L290.60938 122.01303Q290.60938 122.778656 290.10938 123.278656Q289.625 123.76303 288.875 123.76303Q288.10938 123.76303 287.60938 123.278656Q287.10938 122.778656 287.10938 121.966156L287.10938 121.559906ZM287.92188 122.01303Q287.92188 122.466156 288.17188 122.76303Q288.4375 123.059906 288.875 123.059906Q289.29688 123.059906 289.54688 122.778656Q289.79688 122.48178 289.79688 121.98178L289.79688 121.559906Q289.79688 121.10678 289.54688 120.809906Q289.29688 120.497406 288.85938 120.497406Q288.42188 120.497406 288.17188 120.809906Q287.92188 121.10678 287.92188 121.57553L287.92188 122.01303ZM291.26562 126.35678Q291.26562 125.591156 291.75 125.10678Q292.25 124.60678 293.01562 124.60678Q293.78125 124.60678 294.26562 125.10678Q294.76562 125.591156 294.76562 126.403656L294.76562 126.809906Q294.76562 127.57553 294.28125 128.07553Q293.79688 128.57553 293.03125 128.57553Q292.26562 128.57553 291.76562 128.09116Q291.26562 127.591156 291.26562 126.778656L291.26562 126.35678ZM292.07812 126.809906Q292.07812 127.278656 292.32812 127.57553Q292.59375 127.872406 293.03125 127.872406Q293.45312 127.872406 293.70312 127.591156Q293.95312 127.29428 293.95312 126.79428L293.95312 126.35678Q293.95312 125.88803 293.6875 125.60678Q293.4375 125.309906 293.01562 125.309906Q292.59375 125.309906 292.32812 125.60678Q292.07812 125.88803 292.07812 126.38803L292.07812 126.809906ZM289.125 127.809906L288.5 127.41928L292.67188 120.747406L293.28125 121.13803L289.125 127.809906Z" fill-rule="nonzero"/><path stroke="#4285f4" stroke-width="3.0" stroke-linejoin="round" stroke-linecap="round" d="M397.35938 97.616135Q397.03125 98.022385 396.54688 98.272385Q396.07812 98.50676 395.51562 98.50676Q394.78125 98.50676 394.23438 98.147385Q393.6875 97.78801 393.39062 97.13176Q393.09375 96.459885 393.09375 95.66301Q393.09375 94.81926 393.40625 94.13176Q393.73438 93.44426 394.32812 93.084885Q394.9375 92.709885 395.73438 92.709885Q397.0 92.709885 397.71875 93.66301Q398.45312 94.616135 398.45312 96.241135L398.45312 96.553635Q398.45312 99.053635 397.46875 100.19426Q396.48438 101.334885 394.5 101.366135L394.28125 101.366135L394.28125 100.459885L394.51562 100.459885Q395.85938 100.428635 396.57812 99.75676Q397.29688 99.084885 397.35938 97.616135ZM395.6875 97.616135Q396.23438 97.616135 396.6875 97.28801Q397.15625 96.94426 397.375 96.459885L397.375 96.022385Q397.375 94.959885 396.90625 94.28801Q396.4375 93.616135 395.73438 93.616135Q395.01562 93.616135 394.57812 94.16301Q394.15625 94.709885 394.15625 95.616135Q394.15625 96.491135 394.5625 97.053635Q394.98438 97.616135 395.6875 97.616135ZM405.79688 101.366135L400.20312 101.366135L400.20312 100.584885L403.15625 97.303635Q403.8125 96.553635 404.0625 96.10051Q404.3125 95.63176 404.3125 95.13176Q404.3125 94.459885 403.90625 94.03801Q403.51562 93.60051 402.82812 93.60051Q402.03125 93.60051 401.57812 94.06926Q401.125 94.522385 401.125 95.35051L400.04688 95.35051Q400.04688 94.16301 400.79688 93.44426Q401.5625 92.709885 402.82812 92.709885Q404.03125 92.709885 404.71875 93.334885Q405.40625 93.959885 405.40625 95.00676Q405.40625 96.25676 403.79688 98.00676L401.51562 100.47551L405.79688 100.47551L405.79688 101.366135ZM407.34375 100.803635Q407.34375 100.522385 407.5 100.334885Q407.67188 100.147385 408.0 100.147385Q408.34375 100.147385 408.51562 100.334885Q408.6875 100.522385 408.6875 100.803635Q408.6875 101.06926 408.51562 101.25676Q408.34375 101.428635 408.0 101.428635Q407.67188 101.428635 407.5 101.25676Q407.34375 101.06926 407.34375 100.803635ZM414.46875 92.834885L414.46875 93.741135L414.26562 93.741135Q413.0 93.772385 412.25 94.50676Q411.5 95.22551 411.375 96.53801Q412.0625 95.772385 413.21875 95.772385Q414.32812 95.772385 415.0 96.553635Q415.67188 97.334885 415.67188 98.584885Q415.67188 99.897385 414.95312 100.69426Q414.23438 101.491135 413.01562 101.491135Q411.79688 101.491135 411.03125 100.553635Q410.28125 99.60051 410.28125 98.116135L410.28125 97.709885Q410.28125 95.35051 411.28125 94.10051Q412.28125 92.85051 414.26562 92.834885L414.46875 92.834885ZM413.04688 96.678635Q412.48438 96.678635 412.01562 97.00676Q411.54688 97.334885 411.35938 97.85051L411.35938 98.241135Q411.35938 99.303635 411.82812 99.94426Q412.3125 100.584885 413.01562 100.584885Q413.75 100.584885 414.17188 100.053635Q414.59375 99.50676 414.59375 98.63176Q414.59375 97.75676 414.17188 97.22551Q413.75 96.678635 413.04688 96.678635ZM417.10938 94.47551Q417.10938 93.709885 417.59375 93.209885Q418.09375 92.709885 418.85938 92.709885Q419.64062 92.709885 420.125 93.209885Q420.60938 93.709885 420.60938 94.50676L420.60938 94.928635Q420.60938 95.69426 420.10938 96.19426Q419.625 96.678635 418.875 96.678635Q418.10938 96.678635 417.60938 96.19426Q417.10938 95.69426 417.10938 94.88176L417.10938 94.47551ZM417.92188 94.928635Q417.92188 95.38176 418.17188 95.678635Q418.4375 95.97551 418.875 95.97551Q419.29688 95.97551 419.54688 95.69426Q419.79688 95.397385 419.79688 94.897385L419.79688 94.47551Q419.79688 94.022385 419.54688 93.72551Q419.29688 93.41301 418.85938 93.41301Q418.42188 93.41301 418.17188 93.72551Q417.92188 94.022385 417.92188 94.491135L417.92188 94.928635ZM421.26562 99.272385Q421.26562 98.50676 421.75 98.022385Q422.25 97.522385 423.01562 97.522385Q423.78125 97.522385 424.26562 98.022385Q424.76562 98.50676 424.76562 99.31926L424.76562 99.72551Q424.76562 100.491135 424.28125 100.991135Q423.79688 101.491135 423.03125 101.491135Q422.26562 101.491135 421.76562 101.00676Q421.26562 100.50676 421.26562 99.69426L421.26562 99.272385ZM422.07812 99.72551Q422.07812 100.19426 422.32812 100.491135Q422.59375 100.78801 423.03125 100.78801Q423.45312 100.78801 423.70312 100.50676Q423.95312 100.209885 423.95312 99.709885L423.95312 99.272385Q423.95312 98.803635 423.6875 98.522385Q423.4375 98.22551 423.01562 98.22551Q422.59375 98.22551 422.32812 98.522385Q422.07812 98.803635 422.07812 99.303635L422.07812 99.72551ZM419.125 100.72551L418.5 100.334885L422.67188 93.66301L423.28125 94.053635L419.125 100.72551Z" fill-rule="nonzero"/><path fill="#ffffff" d="M397.35938 97.616135Q397.03125 98.022385 396.54688 98.272385Q396.07812 98.50676 395.51562 98.50676Q394.78125 98.50676 394.23438 98.147385Q393.6875 97.78801 393.39062 97.13176Q393.09375 96.459885 393.09375 95.66301Q393.09375 94.81926 393.40625 94.13176Q393.73438 93.44426 394.32812 93.084885Q394.9375 92.709885 395.73438 92.709885Q397.0 92.709885 397.71875 93.66301Q398.45312 94.616135 398.45312 96.241135L398.45312 96.553635Q398.45312 99.053635 397.46875 100.19426Q396.48438 101.334885 394.5 101.366135L394.28125 101.366135L394.28125 100.459885L394.51562 100.459885Q395.85938 100.428635 396.57812 99.75676Q397.29688 99.084885 397.35938 97.616135ZM395.6875 97.616135Q396.23438 97.616135 396.6875 97.28801Q397.15625 96.94426 397.375 96.459885L397.375 96.022385Q397.375 94.959885 396.90625 94.28801Q396.4375 93.616135 395.73438 93.616135Q395.01562 93.616135 394.57812 94.16301Q394.15625 94.709885 394.15625 95.616135Q394.15625 96.491135 394.5625 97.053635Q394.98438 97.616135 395.6875 97.616135ZM405.79688 101.366135L400.20312 101.366135L400.20312 100.584885L403.15625 97.303635Q403.8125 96.553635 404.0625 96.10051Q404.3125 95.63176 404.3125 95.13176Q404.3125 94.459885 403.90625 94.03801Q403.51562 93.60051 402.82812 93.60051Q402.03125 93.60051 401.57812 94.06926Q401.125 94.522385 401.125 95.35051L400.04688 95.35051Q400.04688 94.16301 400.79688 93.44426Q401.5625 92.709885 402.82812 92.709885Q404.03125 92.709885 404.71875 93.334885Q405.40625 93.959885 405.40625 95.00676Q405.40625 96.25676 403.79688 98.00676L401.51562 100.47551L405.79688 100.47551L405.79688 101.366135ZM407.34375 100.803635Q407.34375 100.522385 407.5 100.334885Q407.67188 100.147385 408.0 100.147385Q408.34375 100.147385 408.51562 100.334885Q408.6875 100.522385 408.6875 100.803635Q408.6875 101.06926 408.51562 101.25676Q408.34375 101.428635 408.0 101.428635Q407.67188 101.428635 407.5 101.25676Q407.34375 101.06926 407.34375 100.803635ZM414.46875 92.834885L414.46875 93.741135L414.26562 93.741135Q413.0 93.772385 412.25 94.50676Q411.5 95.22551 411.375 96.53801Q412.0625 95.772385 413.21875 95.772385Q414.32812 95.772385 415.0 96.553635Q415.67188 97.334885 415.67188 98.584885Q415.67188 99.897385 414.95312 100.69426Q414.23438 101.491135 413.01562 101.491135Q411.79688 101.491135 411.03125 100.553635Q410.28125 99.60051 410.28125 98.116135L410.28125 97.709885Q410.28125 95.35051 411.28125 94.10051Q412.28125 92.85051 414.26562 92.834885L414.46875 92.834885ZM413.04688 96.678635Q412.48438 96.678635 412.01562 97.00676Q411.54688 97.334885 411.35938 97.85051L411.35938 98.241135Q411.35938 99.303635 411.82812 99.94426Q412.3125 100.584885 413.01562 100.584885Q413.75 100.584885 414.17188 100.053635Q414.59375 99.50676 414.59375 98.63176Q414.59375 97.75676 414.17188 97.22551Q413.75 96.678635 413.04688 96.678635ZM417.10938 94.47551Q417.10938 93.709885 417.59375 93.209885Q418.09375 92.709885 418.85938 92.709885Q419.64062 92.709885 420.125 93.209885Q420.60938 93.709885 420.60938 94.50676L420.60938 94.928635Q420.60938 95.69426 420.10938 96.19426Q419.625 96.678635 418.875 96.678635Q418.10938 96.678635 417.60938 96.19426Q417.10938 95.69426 417.10938 94.88176L417.10938 94.47551ZM417.92188 94.928635Q417.92188 95.38176 418.17188 95.678635Q418.4375 95.97551 418.875 95.97551Q419.29688 95.97551 419.54688 95.69426Q419.79688 95.397385 419.79688 94.897385L419.79688 94.47551Q419.79688 94.022385 419.54688 93.72551Q419.29688 93.41301 418.85938 93.41301Q418.42188 93.41301 418.17188 93.72551Q417.92188 94.022385 417.92188 94.491135L417.92188 94.928635ZM421.26562 99.272385Q421.26562 98.50676 421.75 98.022385Q422.25 97.522385 423.01562 97.522385Q423.78125 97.522385 424.26562 98.022385Q424.76562 98.50676 424.76562 99.31926L424.76562 99.72551Q424.76562 100.491135 424.28125 100.991135Q423.79688 101.491135 423.03125 101.491135Q422.26562 101.491135 421.76562 101.00676Q421.26562 100.50676 421.26562 99.69426L421.26562 99.272385ZM422.07812 99.72551Q422.07812 100.19426 422.32812 100.491135Q422.59375 100.78801 423.03125 100.78801Q423.45312 100.78801 423.70312 100.50676Q423.95312 100.209885 423.95312 99.709885L423.95312 99.272385Q423.95312 98.803635 423.6875 98.522385Q423.4375 98.22551 423.01562 98.22551Q422.59375 98.22551 422.32812 98.522385Q422.07812 98.803635 422.07812 99.303635L422.07812 99.72551ZM419.125 100.72551L418.5 100.334885L422.67188 93.66301L423.28125 94.053635L419.125 100.72551Z" fill-rule="nonzero"/><path fill="#000000" d="M41.39375 331.09064Q41.39375 333.4344 40.659374 334.54376Q39.925 335.6375 38.378124 335.6375Q36.8 335.6375 36.065624 334.52814Q35.346874 333.40314 35.346874 331.09064Q35.346874 328.7625 36.08125 327.65314Q36.815624 326.54376 38.378124 326.54376Q39.940624 326.54376 40.659374 327.6844Q41.39375 328.8094 41.39375 331.09064ZM39.846874 333.7469Q40.05 333.2625 40.128124 332.6219Q40.20625 331.98126 40.20625 331.09064Q40.20625 330.2 40.128124 329.54376Q40.05 328.8875 39.846874 328.41876Q39.64375 327.96564 39.284374 327.7469Q38.925 327.5125 38.378124 327.5125Q37.815624 327.5125 37.45625 327.7469Q37.096874 327.96564 36.89375 328.4344Q36.690624 328.8719 36.6125 329.575Q36.55 330.2625 36.55 331.09064Q36.55 332.0125 36.6125 332.6375Q36.675 333.2469 36.878124 333.73126Q37.08125 334.1844 37.425 334.4344Q37.784374 334.66876 38.378124 334.66876Q38.925 334.66876 39.284374 334.4344Q39.64375 334.2 39.846874 333.7469ZM47.7375 329.1375Q47.7375 330.45 47.175 331.09064Q46.628124 331.73126 45.58125 331.73126Q44.51875 331.73126 43.971874 331.09064Q43.425 330.45 43.425 329.15314Q43.425 327.84064 43.971874 327.2Q44.534374 326.5594 45.58125 326.5594Q46.64375 326.5594 47.190624 327.21564Q47.7375 327.85626 47.7375 329.1375ZM51.784374 326.73126L47.20625 335.45L46.2375 335.45L50.815624 326.73126L51.784374 326.73126ZM54.596874 333.02814Q54.596874 334.34064 54.034374 334.98126Q53.471874 335.6219 52.440624 335.6219Q51.378124 335.6219 50.83125 334.98126Q50.284374 334.325 50.284374 333.02814Q50.284374 331.71564 50.83125 331.09064Q51.39375 330.45 52.440624 330.45Q53.503124 330.45 54.05 331.09064Q54.596874 331.71564 54.596874 333.02814ZM46.690624 329.1375Q46.690624 328.1375 46.425 327.7469Q46.159374 327.34064 45.58125 327.34064Q44.9875 327.34064 44.721874 327.7469Q44.471874 328.1375 44.471874 329.15314Q44.471874 330.16876 44.721874 330.5594Q44.9875 330.95 45.58125 330.95Q46.159374 330.95 46.425 330.5594Q46.690624 330.16876 46.690624 329.1375ZM53.55 333.02814Q53.55 332.02814 53.284374 331.6375Q53.034374 331.23126 52.440624 331.23126Q51.846874 331.23126 51.58125 331.6375Q51.33125 332.02814 51.33125 333.02814Q51.33125 334.04376 51.58125 334.45Q51.846874 334.84064 52.440624 334.84064Q53.034374 334.84064 53.284374 334.45Q53.55 334.04376 53.55 333.02814Z" fill-rule="nonzero"/><path fill="#000000" d="M33.39375 269.06668L27.4875 269.06668L27.4875 267.84793Q28.1125 267.31668 28.721874 266.78543Q29.346874 266.25418 29.878124 265.73856Q31.003124 264.6448 31.409374 264.00418Q31.83125 263.36356 31.83125 262.61356Q31.83125 261.94168 31.378124 261.56668Q30.940624 261.17606 30.14375 261.17606Q29.596874 261.17606 28.971874 261.36356Q28.3625 261.55106 27.76875 261.94168L27.70625 261.94168L27.70625 260.7073Q28.128124 260.50418 28.815624 260.3323Q29.51875 260.16043 30.159374 260.16043Q31.503124 260.16043 32.26875 260.81668Q33.034374 261.4573 33.034374 262.56668Q33.034374 263.06668 32.909374 263.50418Q32.784374 263.92606 32.534374 264.30106Q32.3 264.67606 31.9875 265.03543Q31.690624 265.37918 31.253124 265.80106Q30.628124 266.41043 29.95625 266.98856Q29.284374 267.56668 28.70625 268.06668L33.39375 268.06668L33.39375 269.06668ZM41.33125 266.30106Q41.33125 266.91043 41.096874 267.47293Q40.878124 268.0198 40.503124 268.3948Q40.08125 268.80106 39.4875 269.03543Q38.909374 269.25418 38.14375 269.25418Q37.425 269.25418 36.753124 269.09793Q36.096874 268.94168 35.64375 268.73856L35.64375 267.50418L35.721874 267.50418Q36.20625 267.80106 36.846874 268.0198Q37.503124 268.23856 38.1125 268.23856Q38.534374 268.23856 38.925 268.12918Q39.315624 268.00418 39.6125 267.7073Q39.878124 267.4573 40.003124 267.11356Q40.14375 266.75418 40.14375 266.28543Q40.14375 265.8323 39.9875 265.53543Q39.83125 265.22293 39.55 265.03543Q39.253124 264.80106 38.815624 264.72293Q38.378124 264.62918 37.83125 264.62918Q37.315624 264.62918 36.83125 264.7073Q36.3625 264.7698 36.01875 264.8323L36.01875 260.34793L41.26875 260.34793L41.26875 261.36356L37.159374 261.36356L37.159374 263.69168Q37.409374 263.66043 37.659374 263.66043Q37.925 263.6448 38.128124 263.6448Q38.83125 263.6448 39.3625 263.7698Q39.89375 263.87918 40.346874 264.19168Q40.815624 264.50418 41.065624 265.0198Q41.33125 265.5198 41.33125 266.30106ZM47.7375 262.75418Q47.7375 264.06668 47.175 264.7073Q46.628124 265.34793 45.58125 265.34793Q44.51875 265.34793 43.971874 264.7073Q43.425 264.06668 43.425 262.7698Q43.425 261.4573 43.971874 260.81668Q44.534374 260.17606 45.58125 260.17606Q46.64375 260.17606 47.190624 260.8323Q47.7375 261.47293 47.7375 262.75418ZM51.784374 260.34793L47.20625 269.06668L46.2375 269.06668L50.815624 260.34793L51.784374 260.34793ZM54.596874 266.6448Q54.596874 267.9573 54.034374 268.59793Q53.471874 269.23856 52.440624 269.23856Q51.378124 269.23856 50.83125 268.59793Q50.284374 267.94168 50.284374 266.6448Q50.284374 265.3323 50.83125 264.7073Q51.39375 264.06668 52.440624 264.06668Q53.503124 264.06668 54.05 264.7073Q54.596874 265.3323 54.596874 266.6448ZM46.690624 262.75418Q46.690624 261.75418 46.425 261.36356Q46.159374 260.9573 45.58125 260.9573Q44.9875 260.9573 44.721874 261.36356Q44.471874 261.75418 44.471874 262.7698Q44.471874 263.78543 44.721874 264.17606Q44.9875 264.56668 45.58125 264.56668Q46.159374 264.56668 46.425 264.17606Q46.690624 263.78543 46.690624 262.75418ZM53.55 266.6448Q53.55 265.6448 53.284374 265.25418Q53.034374 264.84793 52.440624 264.84793Q51.846874 264.84793 51.58125 265.25418Q51.33125 265.6448 51.33125 266.6448Q51.33125 267.66043 51.58125 268.06668Q51.846874 268.4573 52.440624 268.4573Q53.034374 268.4573 53.284374 268.06668Q53.55 267.66043 53.55 266.6448Z" fill-rule="nonzero"/><path fill="#000000" d="M33.33125 199.91771Q33.33125 200.52708 33.096874 201.08958Q32.878124 201.63646 32.503124 202.01146Q32.08125 202.41771 31.4875 202.65208Q30.909374 202.87083 30.14375 202.87083Q29.425 202.87083 28.753124 202.71458Q28.096874 202.55833 27.64375 202.35521L27.64375 201.12083L27.721874 201.12083Q28.20625 201.41771 28.846874 201.63646Q29.503124 201.85521 30.1125 201.85521Q30.534374 201.85521 30.925 201.74583Q31.315624 201.62083 31.6125 201.32396Q31.878124 201.07396 32.003124 200.73021Q32.14375 200.37083 32.14375 199.90208Q32.14375 199.44896 31.9875 199.15208Q31.83125 198.83958 31.55 198.65208Q31.253124 198.41771 30.815624 198.33958Q30.378124 198.24583 29.83125 198.24583Q29.315624 198.24583 28.83125 198.32396Q28.3625 198.38646 28.01875 198.44896L28.01875 193.96458L33.26875 193.96458L33.26875 194.98021L29.159374 194.98021L29.159374 197.30833Q29.409374 197.27708 29.659374 197.27708Q29.925 197.26146 30.128124 197.26146Q30.83125 197.26146 31.3625 197.38646Q31.89375 197.49583 32.346874 197.80833Q32.815624 198.12083 33.065624 198.63646Q33.33125 199.13646 33.33125 199.91771ZM41.39375 198.32396Q41.39375 200.66771 40.659374 201.77708Q39.925 202.87083 38.378124 202.87083Q36.8 202.87083 36.065624 201.76146Q35.346874 200.63646 35.346874 198.32396Q35.346874 195.99583 36.08125 194.88646Q36.815624 193.77708 38.378124 193.77708Q39.940624 193.77708 40.659374 194.91771Q41.39375 196.04271 41.39375 198.32396ZM39.846874 200.98021Q40.05 200.49583 40.128124 199.85521Q40.20625 199.21458 40.20625 198.32396Q40.20625 197.43333 40.128124 196.77708Q40.05 196.12083 39.846874 195.65208Q39.64375 195.19896 39.284374 194.98021Q38.925 194.74583 38.378124 194.74583Q37.815624 194.74583 37.45625 194.98021Q37.096874 195.19896 36.89375 195.66771Q36.690624 196.10521 36.6125 196.80833Q36.55 197.49583 36.55 198.32396Q36.55 199.24583 36.6125 199.87083Q36.675 200.48021 36.878124 200.96458Q37.08125 201.41771 37.425 201.66771Q37.784374 201.90208 38.378124 201.90208Q38.925 201.90208 39.284374 201.66771Q39.64375 201.43333 39.846874 200.98021ZM47.7375 196.37083Q47.7375 197.68333 47.175 198.32396Q46.628124 198.96458 45.58125 198.96458Q44.51875 198.96458 43.971874 198.32396Q43.425 197.68333 43.425 196.38646Q43.425 195.07396 43.971874 194.43333Q44.534374 193.79271 45.58125 193.79271Q46.64375 193.79271 47.190624 194.44896Q47.7375 195.08958 47.7375 196.37083ZM51.784374 193.96458L47.20625 202.68333L46.2375 202.68333L50.815624 193.96458L51.784374 193.96458ZM54.596874 200.26146Q54.596874 201.57396 54.034374 202.21458Q53.471874 202.85521 52.440624 202.85521Q51.378124 202.85521 50.83125 202.21458Q50.284374 201.55833 50.284374 200.26146Q50.284374 198.94896 50.83125 198.32396Q51.39375 197.68333 52.440624 197.68333Q53.503124 197.68333 54.05 198.32396Q54.596874 198.94896 54.596874 200.26146ZM46.690624 196.37083Q46.690624 195.37083 46.425 194.98021Q46.159374 194.57396 45.58125 194.57396Q44.9875 194.57396 44.721874 194.98021Q44.471874 195.37083 44.471874 196.38646Q44.471874 197.40208 44.721874 197.79271Q44.9875 198.18333 45.58125 198.18333Q46.159374 198.18333 46.425 197.79271Q46.690624 197.40208 46.690624 196.37083ZM53.55 200.26146Q53.55 199.26146 53.284374 198.87083Q53.034374 198.46458 52.440624 198.46458Q51.846874 198.46458 51.58125 198.87083Q51.33125 199.26146 51.33125 200.26146Q51.33125 201.27708 51.58125 201.68333Q51.846874 202.07396 52.440624 202.07396Q53.034374 202.07396 53.284374 201.68333Q53.55 201.27708 53.55 200.26146Z" fill-rule="nonzero"/><path fill="#000000" d="M33.425 128.87813L29.471874 136.3L28.221874 136.3L32.425 128.59688L27.45625 128.59688L27.45625 127.58125L33.425 127.58125L33.425 128.87813ZM41.33125 133.53438Q41.33125 134.14375 41.096874 134.70625Q40.878124 135.25313 40.503124 135.62813Q40.08125 136.03438 39.4875 136.26875Q38.909374 136.4875 38.14375 136.4875Q37.425 136.4875 36.753124 136.33125Q36.096874 136.175 35.64375 135.97188L35.64375 134.7375L35.721874 134.7375Q36.20625 135.03438 36.846874 135.25313Q37.503124 135.47188 38.1125 135.47188Q38.534374 135.47188 38.925 135.3625Q39.315624 135.2375 39.6125 134.94063Q39.878124 134.69063 40.003124 134.34688Q40.14375 133.9875 40.14375 133.51875Q40.14375 133.06563 39.9875 132.76875Q39.83125 132.45625 39.55 132.26875Q39.253124 132.03438 38.815624 131.95625Q38.378124 131.8625 37.83125 131.8625Q37.315624 131.8625 36.83125 131.94063Q36.3625 132.00313 36.01875 132.06563L36.01875 127.58125L41.26875 127.58125L41.26875 128.59688L37.159374 128.59688L37.159374 130.925Q37.409374 130.89375 37.659374 130.89375Q37.925 130.87813 38.128124 130.87813Q38.83125 130.87813 39.3625 131.00313Q39.89375 131.1125 40.346874 131.425Q40.815624 131.7375 41.065624 132.25313Q41.33125 132.75313 41.33125 133.53438ZM47.7375 129.9875Q47.7375 131.3 47.175 131.94063Q46.628124 132.58125 45.58125 132.58125Q44.51875 132.58125 43.971874 131.94063Q43.425 131.3 43.425 130.00313Q43.425 128.69063 43.971874 128.05Q44.534374 127.40938 45.58125 127.40938Q46.64375 127.40938 47.190624 128.06563Q47.7375 128.70625 47.7375 129.9875ZM51.784374 127.58125L47.20625 136.3L46.2375 136.3L50.815624 127.58125L51.784374 127.58125ZM54.596874 133.87813Q54.596874 135.19063 54.034374 135.83125Q53.471874 136.47188 52.440624 136.47188Q51.378124 136.47188 50.83125 135.83125Q50.284374 135.175 50.284374 133.87813Q50.284374 132.56563 50.83125 131.94063Q51.39375 131.3 52.440624 131.3Q53.503124 131.3 54.05 131.94063Q54.596874 132.56563 54.596874 133.87813ZM46.690624 129.9875Q46.690624 128.9875 46.425 128.59688Q46.159374 128.19063 45.58125 128.19063Q44.9875 128.19063 44.721874 128.59688Q44.471874 128.9875 44.471874 130.00313Q44.471874 131.01875 44.721874 131.40938Q44.9875 131.8 45.58125 131.8Q46.159374 131.8 46.425 131.40938Q46.690624 131.01875 46.690624 129.9875ZM53.55 133.87813Q53.55 132.87813 53.284374 132.4875Q53.034374 132.08125 52.440624 132.08125Q51.846874 132.08125 51.58125 132.4875Q51.33125 132.87813 51.33125 133.87813Q51.33125 134.89375 51.58125 135.3Q51.846874 135.69063 52.440624 135.69063Q53.034374 135.69063 53.284374 135.3Q53.55 134.89375 53.55 133.87813Z" fill-rule="nonzero"/><path fill="#000000" d="M24.909374 69.916664L20.175 69.916664L20.175 69.02604L22.003124 69.02604L22.003124 63.18229L20.175 63.18229L20.175 62.385414Q20.55 62.385414 20.971874 62.322914Q21.39375 62.260414 21.6125 62.135414Q21.878124 61.99479 22.034374 61.77604Q22.190624 61.541664 22.20625 61.166664L23.128124 61.166664L23.128124 69.02604L24.909374 69.02604L24.909374 69.916664ZM33.39375 65.55729Q33.39375 67.90104 32.659374 69.010414Q31.925 70.104164 30.378124 70.104164Q28.8 70.104164 28.065624 68.99479Q27.346874 67.86979 27.346874 65.55729Q27.346874 63.229164 28.08125 62.11979Q28.815624 61.010414 30.378124 61.010414Q31.940624 61.010414 32.659374 62.15104Q33.39375 63.27604 33.39375 65.55729ZM31.846874 68.21354Q32.05 67.729164 32.128124 67.08854Q32.20625 66.447914 32.20625 65.55729Q32.20625 64.666664 32.128124 64.010414Q32.05 63.354164 31.846874 62.885414Q31.64375 62.43229 31.284374 62.21354Q30.925 61.979164 30.378124 61.979164Q29.815624 61.979164 29.45625 62.21354Q29.096874 62.43229 28.89375 62.90104Q28.690624 63.33854 28.6125 64.041664Q28.55 64.729164 28.55 65.55729Q28.55 66.479164 28.6125 67.104164Q28.675 67.71354 28.878124 68.197914Q29.08125 68.65104 29.425 68.90104Q29.784374 69.135414 30.378124 69.135414Q30.925 69.135414 31.284374 68.90104Q31.64375 68.666664 31.846874 68.21354ZM41.39375 65.55729Q41.39375 67.90104 40.659374 69.010414Q39.925 70.104164 38.378124 70.104164Q36.8 70.104164 36.065624 68.99479Q35.346874 67.86979 35.346874 65.55729Q35.346874 63.229164 36.08125 62.11979Q36.815624 61.010414 38.378124 61.010414Q39.940624 61.010414 40.659374 62.15104Q41.39375 63.27604 41.39375 65.55729ZM39.846874 68.21354Q40.05 67.729164 40.128124 67.08854Q40.20625 66.447914 40.20625 65.55729Q40.20625 64.666664 40.128124 64.010414Q40.05 63.354164 39.846874 62.885414Q39.64375 62.43229 39.284374 62.21354Q38.925 61.979164 38.378124 61.979164Q37.815624 61.979164 37.45625 62.21354Q37.096874 62.43229 36.89375 62.90104Q36.690624 63.33854 36.6125 64.041664Q36.55 64.729164 36.55 65.55729Q36.55 66.479164 36.6125 67.104164Q36.675 67.71354 36.878124 68.197914Q37.08125 68.65104 37.425 68.90104Q37.784374 69.135414 38.378124 69.135414Q38.925 69.135414 39.284374 68.90104Q39.64375 68.666664 39.846874 68.21354ZM47.7375 63.604164Q47.7375 64.916664 47.175 65.55729Q46.628124 66.197914 45.58125 66.197914Q44.51875 66.197914 43.971874 65.55729Q43.425 64.916664 43.425 63.61979Q43.425 62.30729 43.971874 61.666664Q44.534374 61.02604 45.58125 61.02604Q46.64375 61.02604 47.190624 61.68229Q47.7375 62.322914 47.7375 63.604164ZM51.784374 61.197914L47.20625 69.916664L46.2375 69.916664L50.815624 61.197914L51.784374 61.197914ZM54.596874 67.49479Q54.596874 68.80729 54.034374 69.447914Q53.471874 70.08854 52.440624 70.08854Q51.378124 70.08854 50.83125 69.447914Q50.284374 68.791664 50.284374 67.49479Q50.284374 66.18229 50.83125 65.55729Q51.39375 64.916664 52.440624 64.916664Q53.503124 64.916664 54.05 65.55729Q54.596874 66.18229 54.596874 67.49479ZM46.690624 63.604164Q46.690624 62.604164 46.425 62.21354Q46.159374 61.80729 45.58125 61.80729Q44.9875 61.80729 44.721874 62.21354Q44.471874 62.604164 44.471874 63.61979Q44.471874 64.635414 44.721874 65.02604Q44.9875 65.416664 45.58125 65.416664Q46.159374 65.416664 46.425 65.02604Q46.690624 64.635414 46.690624 63.604164ZM53.55 67.49479Q53.55 66.49479 53.284374 66.104164Q53.034374 65.697914 52.440624 65.697914Q51.846874 65.697914 51.58125 66.104164Q51.33125 66.49479 51.33125 67.49479Q51.33125 68.510414 51.58125 68.916664Q51.846874 69.30729 52.440624 69.30729Q53.034374 69.30729 53.284374 68.916664Q53.55 68.510414 53.55 67.49479Z" fill-rule="nonzero"/><path fill="#000000" d="M139.44223 349.45L138.33286 349.45L138.33286 340.325L139.44223 340.325L139.44223 349.45ZM146.89536 346.1844Q146.89536 347.77814 146.06723 348.71564Q145.25473 349.6375 143.87973 349.6375Q142.4891 349.6375 141.6766 348.71564Q140.8641 347.77814 140.8641 346.1844Q140.8641 344.575 141.6766 343.65314Q142.4891 342.71564 143.87973 342.71564Q145.25473 342.71564 146.06723 343.65314Q146.89536 344.575 146.89536 346.1844ZM145.77036 346.1844Q145.77036 344.90314 145.27036 344.29376Q144.77036 343.66876 143.87973 343.66876Q142.9891 343.66876 142.4891 344.29376Q142.00473 344.90314 142.00473 346.1844Q142.00473 347.40314 142.4891 348.04376Q142.9891 348.6844 143.87973 348.6844Q144.77036 348.6844 145.27036 348.0594Q145.77036 347.41876 145.77036 346.1844ZM153.41098 349.45L152.31723 349.45L152.31723 348.7469Q152.16098 348.85626 151.91098 349.04376Q151.6766 349.21564 151.44223 349.3094Q151.16098 349.45 150.8016 349.54376Q150.44223 349.6375 149.95786 349.6375Q149.08286 349.6375 148.45786 349.0594Q147.84848 348.46564 147.84848 347.54376Q147.84848 346.8094 148.16098 346.35626Q148.4891 345.8875 149.08286 345.6219Q149.6766 345.35626 150.50473 345.2625Q151.34848 345.16876 152.31723 345.1219L152.31723 344.95Q152.31723 344.575 152.1766 344.34064Q152.0516 344.09064 151.8016 343.95Q151.56723 343.8094 151.2391 343.7625Q150.91098 343.71564 150.5516 343.71564Q150.12973 343.71564 149.58286 343.84064Q149.0516 343.95 148.4891 344.16876L148.4266 344.16876L148.4266 343.04376Q148.75473 342.95 149.3641 342.85626Q149.97348 342.7469 150.56723 342.7469Q151.25473 342.7469 151.77036 342.8719Q152.28598 342.98126 152.66098 343.2469Q153.02036 343.5125 153.20786 343.95Q153.41098 344.3719 153.41098 345.0125L153.41098 349.45ZM152.31723 347.84064L152.31723 346.0125Q151.81723 346.04376 151.12973 346.10626Q150.44223 346.16876 150.0516 346.27814Q149.56723 346.40314 149.27036 346.7Q148.9891 346.98126 148.9891 347.48126Q148.9891 348.04376 149.31723 348.325Q149.66098 348.60626 150.3641 348.60626Q150.94223 348.60626 151.4266 348.3875Q151.91098 348.15314 152.31723 347.84064ZM160.62973 349.45L159.53598 349.45L159.53598 348.7625Q159.0516 349.16876 158.53598 349.40314Q158.02036 349.6375 157.4266 349.6375Q156.25473 349.6375 155.56723 348.73126Q154.87973 347.825 154.87973 346.23126Q154.87973 345.3875 155.1141 344.7469Q155.34848 344.09064 155.75473 343.6375Q156.14536 343.1844 156.6766 342.95Q157.20786 342.71564 157.78598 342.71564Q158.3016 342.71564 158.69223 342.825Q159.09848 342.9344 159.53598 343.16876L159.53598 340.325L160.62973 340.325L160.62973 349.45ZM159.53598 347.84064L159.53598 344.075Q159.08286 343.8875 158.72348 343.8094Q158.37973 343.73126 157.97348 343.73126Q157.03598 343.73126 156.52036 344.3719Q156.00473 345.0125 156.00473 346.2Q156.00473 347.3719 156.39536 347.98126Q156.8016 348.575 157.69223 348.575Q158.16098 348.575 158.62973 348.3719Q159.1141 348.16876 159.53598 347.84064Z" fill-rule="nonzero"/><path fill="#000000" d="M226.99265 346.1219Q226.99265 346.95 226.75827 347.60626Q226.5239 348.2625 226.13327 348.7Q225.72702 349.16876 225.22702 349.40314Q224.72702 349.6375 224.13327 349.6375Q223.57077 349.6375 223.1489 349.4969Q222.74265 349.3719 222.3364 349.1375L222.25827 349.45L221.22702 349.45L221.22702 340.325L222.3364 340.325L222.3364 343.59064Q222.80515 343.21564 223.32077 342.96564Q223.8364 342.71564 224.49265 342.71564Q225.6489 342.71564 226.32077 343.60626Q226.99265 344.4969 226.99265 346.1219ZM225.85202 346.15314Q225.85202 344.98126 225.4614 344.3875Q225.0864 343.77814 224.22702 343.77814Q223.74265 343.77814 223.24265 343.98126Q222.75827 344.1844 222.3364 344.5125L222.3364 348.2625Q222.80515 348.48126 223.13327 348.5594Q223.47702 348.6375 223.8989 348.6375Q224.82077 348.6375 225.3364 348.04376Q225.85202 347.4344 225.85202 346.15314ZM231.75827 341.40314L231.69577 341.40314Q231.50827 341.34064 231.2114 341.29376Q230.93015 341.23126 230.7114 341.23126Q229.99265 341.23126 229.66452 341.54376Q229.35202 341.85626 229.35202 342.6844L229.35202 342.90314L231.35202 342.90314L231.35202 343.825L229.3989 343.825L229.3989 349.45L228.28952 349.45L228.28952 343.825L227.55515 343.825L227.55515 342.90314L228.28952 342.90314L228.28952 342.6844Q228.28952 341.52814 228.86765 340.90314Q229.44577 340.27814 230.55515 340.27814Q230.91452 340.27814 231.2114 340.3094Q231.50827 340.34064 231.75827 340.3875L231.75827 341.40314ZM237.07077 349.04376Q236.5239 349.3094 236.0239 349.45Q235.53952 349.59064 234.97702 349.59064Q234.2739 349.59064 233.68015 349.3875Q233.0864 349.1844 232.66452 348.7625Q232.22702 348.34064 231.99265 347.7Q231.75827 347.04376 231.75827 346.1844Q231.75827 344.575 232.63327 343.66876Q233.5239 342.7469 234.97702 342.7469Q235.53952 342.7469 236.07077 342.91876Q236.61765 343.075 237.07077 343.29376L237.07077 344.52814L237.00827 344.52814Q236.50827 344.1219 235.97702 343.91876Q235.44577 343.7 234.93015 343.7Q233.99265 343.7 233.44577 344.34064Q232.91452 344.96564 232.91452 346.1844Q232.91452 347.3719 233.43015 348.0125Q233.9614 348.6375 234.93015 348.6375Q235.25827 348.6375 235.60202 348.5594Q235.9614 348.46564 236.22702 348.325Q236.47702 348.2 236.68015 348.0594Q236.8989 347.91876 237.00827 347.825L237.07077 347.825L237.07077 349.04376ZM243.32077 349.45L242.22702 349.45L242.22702 348.7469Q242.07077 348.85626 241.82077 349.04376Q241.5864 349.21564 241.35202 349.3094Q241.07077 349.45 240.7114 349.54376Q240.35202 349.6375 239.86765 349.6375Q238.99265 349.6375 238.36765 349.0594Q237.75827 348.46564 237.75827 347.54376Q237.75827 346.8094 238.07077 346.35626Q238.3989 345.8875 238.99265 345.6219Q239.5864 345.35626 240.41452 345.2625Q241.25827 345.16876 242.22702 345.1219L242.22702 344.95Q242.22702 344.575 242.0864 344.34064Q241.9614 344.09064 241.7114 343.95Q241.47702 343.8094 241.1489 343.7625Q240.82077 343.71564 240.4614 343.71564Q240.03952 343.71564 239.49265 343.84064Q238.9614 343.95 238.3989 344.16876L238.3364 344.16876L238.3364 343.04376Q238.66452 342.95 239.2739 342.85626Q239.88327 342.7469 240.47702 342.7469Q241.16452 342.7469 241.68015 342.8719Q242.19577 342.98126 242.57077 343.2469Q242.93015 343.5125 243.11765 343.95Q243.32077 344.3719 243.32077 345.0125L243.32077 349.45ZM242.22702 347.84064L242.22702 346.0125Q241.72702 346.04376 241.03952 346.10626Q240.35202 346.16876 239.9614 346.27814Q239.47702 346.40314 239.18015 346.7Q238.8989 346.98126 238.8989 347.48126Q238.8989 348.04376 239.22702 348.325Q239.57077 348.60626 240.2739 348.60626Q240.85202 348.60626 241.3364 348.3875Q241.82077 348.15314 242.22702 347.84064ZM250.07077 349.04376Q249.5239 349.3094 249.0239 349.45Q248.53952 349.59064 247.97702 349.59064Q247.2739 349.59064 246.68015 349.3875Q246.0864 349.1844 245.66452 348.7625Q245.22702 348.34064 244.99265 347.7Q244.75827 347.04376 244.75827 346.1844Q244.75827 344.575 245.63327 343.66876Q246.5239 342.7469 247.97702 342.7469Q248.53952 342.7469 249.07077 342.91876Q249.61765 343.075 250.07077 343.29376L250.07077 344.52814L250.00827 344.52814Q249.50827 344.1219 248.97702 343.91876Q248.44577 343.7 247.93015 343.7Q246.99265 343.7 246.44577 344.34064Q245.91452 344.96564 245.91452 346.1844Q245.91452 347.3719 246.43015 348.0125Q246.9614 348.6375 247.93015 348.6375Q248.25827 348.6375 248.60202 348.5594Q248.9614 348.46564 249.22702 348.325Q249.47702 348.2 249.68015 348.0594Q249.8989 347.91876 250.00827 347.825L250.07077 347.825L250.07077 349.04376ZM256.7114 349.45L255.60202 349.45L255.60202 345.71564Q255.60202 345.27814 255.53952 344.8875Q255.49265 344.48126 255.35202 344.2625Q255.2114 344.0125 254.93015 343.90314Q254.66452 343.77814 254.22702 343.77814Q253.7739 343.77814 253.2739 343.9969Q252.78952 344.21564 252.3364 344.5594L252.3364 349.45L251.22702 349.45L251.22702 340.325L252.3364 340.325L252.3364 343.6375Q252.85202 343.2 253.3989 342.96564Q253.94577 342.71564 254.53952 342.71564Q255.5864 342.71564 256.1489 343.35626Q256.7114 343.9969 256.7114 345.2L256.7114 349.45ZM264.7114 346.29376L259.88327 346.29376Q259.88327 346.8875 260.07077 347.34064Q260.25827 347.79376 260.57077 348.075Q260.86765 348.35626 261.28952 348.4969Q261.7114 348.6375 262.2114 348.6375Q262.88327 348.6375 263.55515 348.3719Q264.24265 348.10626 264.5239 347.85626L264.5864 347.85626L264.5864 349.04376Q264.0239 349.27814 263.44577 349.45Q262.86765 349.60626 262.22702 349.60626Q260.60202 349.60626 259.68015 348.73126Q258.7739 347.84064 258.7739 346.21564Q258.7739 344.60626 259.6489 343.66876Q260.5239 342.71564 261.94577 342.71564Q263.2739 342.71564 263.99265 343.4969Q264.7114 344.2625 264.7114 345.7L264.7114 346.29376ZM263.63327 345.45Q263.63327 344.575 263.19577 344.10626Q262.7739 343.6375 261.8989 343.6375Q261.00827 343.6375 260.47702 344.15314Q259.9614 344.66876 259.88327 345.45L263.63327 345.45ZM269.69577 346.16876L266.03952 346.16876L266.03952 345.10626L269.69577 345.10626L269.69577 346.16876ZM275.91452 347.5594Q275.91452 348.46564 275.16452 349.04376Q274.43015 349.60626 273.1489 349.60626Q272.41452 349.60626 271.80515 349.4344Q271.2114 349.2625 270.78952 349.0594L270.78952 347.825L270.85202 347.825Q271.36765 348.21564 272.00827 348.45Q272.6489 348.66876 273.24265 348.66876Q273.9614 348.66876 274.36765 348.4344Q274.78952 348.2 274.78952 347.7Q274.78952 347.3094 274.55515 347.1219Q274.3364 346.91876 273.7114 346.77814Q273.47702 346.73126 273.0864 346.66876Q272.7114 346.59064 272.3989 346.4969Q271.53952 346.27814 271.18015 345.84064Q270.82077 345.3875 270.82077 344.7469Q270.82077 344.34064 270.99265 343.98126Q271.16452 343.6219 271.49265 343.34064Q271.82077 343.075 272.32077 342.91876Q272.8364 342.7469 273.4614 342.7469Q274.05515 342.7469 274.6489 342.8875Q275.25827 343.02814 275.6489 343.23126L275.6489 344.41876L275.5864 344.41876Q275.16452 344.10626 274.55515 343.90314Q273.9614 343.6844 273.38327 343.6844Q272.7739 343.6844 272.35202 343.91876Q271.94577 344.1375 271.94577 344.59064Q271.94577 344.9969 272.19577 345.2Q272.44577 345.41876 272.99265 345.54376Q273.30515 345.60626 273.68015 345.6844Q274.05515 345.7469 274.30515 345.8094Q275.07077 345.98126 275.49265 346.41876Q275.91452 346.84064 275.91452 347.5594ZM282.32077 349.45L281.22702 349.45L281.22702 348.7469Q281.07077 348.85626 280.82077 349.04376Q280.5864 349.21564 280.35202 349.3094Q280.07077 349.45 279.7114 349.54376Q279.35202 349.6375 278.86765 349.6375Q277.99265 349.6375 277.36765 349.0594Q276.75827 348.46564 276.75827 347.54376Q276.75827 346.8094 277.07077 346.35626Q277.3989 345.8875 277.99265 345.6219Q278.5864 345.35626 279.41452 345.2625Q280.25827 345.16876 281.22702 345.1219L281.22702 344.95Q281.22702 344.575 281.0864 344.34064Q280.9614 344.09064 280.7114 343.95Q280.47702 343.8094 280.1489 343.7625Q279.82077 343.71564 279.4614 343.71564Q279.03952 343.71564 278.49265 343.84064Q277.9614 343.95 277.3989 344.16876L277.3364 344.16876L277.3364 343.04376Q277.66452 342.95 278.2739 342.85626Q278.88327 342.7469 279.47702 342.7469Q280.16452 342.7469 280.68015 342.8719Q281.19577 342.98126 281.57077 343.2469Q281.93015 343.5125 282.11765 343.95Q282.32077 344.3719 282.32077 345.0125L282.32077 349.45ZM281.22702 347.84064L281.22702 346.0125Q280.72702 346.04376 280.03952 346.10626Q279.35202 346.16876 278.9614 346.27814Q278.47702 346.40314 278.18015 346.7Q277.8989 346.98126 277.8989 347.48126Q277.8989 348.04376 278.22702 348.325Q278.57077 348.60626 279.2739 348.60626Q279.85202 348.60626 280.3364 348.3875Q280.82077 348.15314 281.22702 347.84064ZM287.75827 341.40314L287.69577 341.40314Q287.50827 341.34064 287.2114 341.29376Q286.93015 341.23126 286.7114 341.23126Q285.99265 341.23126 285.66452 341.54376Q285.35202 341.85626 285.35202 342.6844L285.35202 342.90314L287.35202 342.90314L287.35202 343.825L285.3989 343.825L285.3989 349.45L284.28952 349.45L284.28952 343.825L283.55515 343.825L283.55515 342.90314L284.28952 342.90314L284.28952 342.6844Q284.28952 341.52814 284.86765 340.90314Q285.44577 340.27814 286.55515 340.27814Q286.91452 340.27814 287.2114 340.3094Q287.50827 340.34064 287.75827 340.3875L287.75827 341.40314ZM293.7114 346.29376L288.88327 346.29376Q288.88327 346.8875 289.07077 347.34064Q289.25827 347.79376 289.57077 348.075Q289.86765 348.35626 290.28952 348.4969Q290.7114 348.6375 291.2114 348.6375Q291.88327 348.6375 292.55515 348.3719Q293.24265 348.10626 293.5239 347.85626L293.5864 347.85626L293.5864 349.04376Q293.0239 349.27814 292.44577 349.45Q291.86765 349.60626 291.22702 349.60626Q289.60202 349.60626 288.68015 348.73126Q287.7739 347.84064 287.7739 346.21564Q287.7739 344.60626 288.6489 343.66876Q289.5239 342.71564 290.94577 342.71564Q292.2739 342.71564 292.99265 343.4969Q293.7114 344.2625 293.7114 345.7L293.7114 346.29376ZM292.63327 345.45Q292.63327 344.575 292.19577 344.10626Q291.7739 343.6375 290.8989 343.6375Q290.00827 343.6375 289.47702 344.15314Q288.9614 344.66876 288.88327 345.45L292.63327 345.45ZM304.66452 349.45L303.55515 349.45L303.55515 348.71564Q303.00827 349.16876 302.49265 349.40314Q301.97702 349.6375 301.36765 349.6375Q300.3364 349.6375 299.75827 349.0125Q299.18015 348.3719 299.18015 347.15314L299.18015 342.90314L300.28952 342.90314L300.28952 346.6375Q300.28952 347.1219 300.3364 347.48126Q300.38327 347.84064 300.53952 348.09064Q300.69577 348.34064 300.94577 348.46564Q301.19577 348.575 301.68015 348.575Q302.10202 348.575 302.60202 348.35626Q303.11765 348.1375 303.55515 347.79376L303.55515 342.90314L304.66452 342.90314L304.66452 349.45ZM312.7114 349.45L311.60202 349.45L311.60202 345.71564Q311.60202 345.27814 311.53952 344.8875Q311.49265 344.48126 311.35202 344.2625Q311.2114 344.0125 310.93015 343.90314Q310.66452 343.77814 310.22702 343.77814Q309.7739 343.77814 309.2739 343.9969Q308.78952 344.21564 308.3364 344.5594L308.3364 349.45L307.22702 349.45L307.22702 342.90314L308.3364 342.90314L308.3364 343.6375Q308.85202 343.2 309.3989 342.96564Q309.94577 342.71564 310.53952 342.71564Q311.5864 342.71564 312.1489 343.35626Q312.7114 343.9969 312.7114 345.2L312.7114 349.45ZM316.35202 349.45L315.24265 349.45L315.24265 340.325L316.35202 340.325L316.35202 349.45ZM323.80515 346.1844Q323.80515 347.77814 322.97702 348.71564Q322.16452 349.6375 320.78952 349.6375Q319.3989 349.6375 318.5864 348.71564Q317.7739 347.77814 317.7739 346.1844Q317.7739 344.575 318.5864 343.65314Q319.3989 342.71564 320.78952 342.71564Q322.16452 342.71564 322.97702 343.65314Q323.80515 344.575 323.80515 346.1844ZM322.68015 346.1844Q322.68015 344.90314 322.18015 344.29376Q321.68015 343.66876 320.78952 343.66876Q319.8989 343.66876 319.3989 344.29376Q318.91452 344.90314 318.91452 346.1844Q318.91452 347.40314 319.3989 348.04376Q319.8989 348.6844 320.78952 348.6844Q321.68015 348.6844 322.18015 348.0594Q322.68015 347.41876 322.68015 346.1844ZM330.32077 349.45L329.22702 349.45L329.22702 348.7469Q329.07077 348.85626 328.82077 349.04376Q328.5864 349.21564 328.35202 349.3094Q328.07077 349.45 327.7114 349.54376Q327.35202 349.6375 326.86765 349.6375Q325.99265 349.6375 325.36765 349.0594Q324.75827 348.46564 324.75827 347.54376Q324.75827 346.8094 325.07077 346.35626Q325.3989 345.8875 325.99265 345.6219Q326.5864 345.35626 327.41452 345.2625Q328.25827 345.16876 329.22702 345.1219L329.22702 344.95Q329.22702 344.575 329.0864 344.34064Q328.9614 344.09064 328.7114 343.95Q328.47702 343.8094 328.1489 343.7625Q327.82077 343.71564 327.4614 343.71564Q327.03952 343.71564 326.49265 343.84064Q325.9614 343.95 325.3989 344.16876L325.3364 344.16876L325.3364 343.04376Q325.66452 342.95 326.2739 342.85626Q326.88327 342.7469 327.47702 342.7469Q328.16452 342.7469 328.68015 342.8719Q329.19577 342.98126 329.57077 343.2469Q329.93015 343.5125 330.11765 343.95Q330.32077 344.3719 330.32077 345.0125L330.32077 349.45ZM329.22702 347.84064L329.22702 346.0125Q328.72702 346.04376 328.03952 346.10626Q327.35202 346.16876 326.9614 346.27814Q326.47702 346.40314 326.18015 346.7Q325.8989 346.98126 325.8989 347.48126Q325.8989 348.04376 326.22702 348.325Q326.57077 348.60626 327.2739 348.60626Q327.85202 348.60626 328.3364 348.3875Q328.82077 348.15314 329.22702 347.84064ZM337.53952 349.45L336.44577 349.45L336.44577 348.7625Q335.9614 349.16876 335.44577 349.40314Q334.93015 349.6375 334.3364 349.6375Q333.16452 349.6375 332.47702 348.73126Q331.78952 347.825 331.78952 346.23126Q331.78952 345.3875 332.0239 344.7469Q332.25827 344.09064 332.66452 343.6375Q333.05515 343.1844 333.5864 342.95Q334.11765 342.71564 334.69577 342.71564Q335.2114 342.71564 335.60202 342.825Q336.00827 342.9344 336.44577 343.16876L336.44577 340.325L337.53952 340.325L337.53952 349.45ZM336.44577 347.84064L336.44577 344.075Q335.99265 343.8875 335.63327 343.8094Q335.28952 343.73126 334.88327 343.73126Q333.94577 343.73126 333.43015 344.3719Q332.91452 345.0125 332.91452 346.2Q332.91452 347.3719 333.30515 347.98126Q333.7114 348.575 334.60202 348.575Q335.07077 348.575 335.53952 348.3719Q336.0239 348.16876 336.44577 347.84064Z" fill-rule="nonzero"/><path fill="#000000" d="M398.1212 346.29376L393.29306 346.29376Q393.29306 346.8875 393.48056 347.34064Q393.66806 347.79376 393.98056 348.075Q394.27744 348.35626 394.6993 348.4969Q395.1212 348.6375 395.6212 348.6375Q396.29306 348.6375 396.96494 348.3719Q397.65244 348.10626 397.9337 347.85626L397.9962 347.85626L397.9962 349.04376Q397.4337 349.27814 396.85556 349.45Q396.27744 349.60626 395.6368 349.60626Q394.0118 349.60626 393.08994 348.73126Q392.1837 347.84064 392.1837 346.21564Q392.1837 344.60626 393.0587 343.66876Q393.9337 342.71564 395.35556 342.71564Q396.6837 342.71564 397.40244 343.4969Q398.1212 344.2625 398.1212 345.7L398.1212 346.29376ZM397.04306 345.45Q397.04306 344.575 396.60556 344.10626Q396.1837 343.6375 395.3087 343.6375Q394.41806 343.6375 393.8868 344.15314Q393.3712 344.66876 393.29306 345.45L397.04306 345.45ZM400.8243 341.8094L399.58994 341.8094L399.58994 340.66876L400.8243 340.66876L400.8243 341.8094ZM400.7618 349.45L399.65244 349.45L399.65244 342.90314L400.7618 342.90314L400.7618 349.45ZM406.04306 349.3875Q405.73056 349.48126 405.35556 349.52814Q404.9962 349.575 404.71494 349.575Q403.71494 349.575 403.1837 349.04376Q402.66806 348.4969 402.66806 347.3094L402.66806 343.825L401.91806 343.825L401.91806 342.90314L402.66806 342.90314L402.66806 341.02814L403.7618 341.02814L403.7618 342.90314L406.04306 342.90314L406.04306 343.825L403.7618 343.825L403.7618 346.8094Q403.7618 347.325 403.77744 347.6219Q403.8087 347.90314 403.9493 348.15314Q404.08994 348.3875 404.3087 348.4969Q404.54306 348.60626 404.9962 348.60626Q405.2618 348.60626 405.5587 348.52814Q405.85556 348.45 405.98056 348.40314L406.04306 348.40314L406.04306 349.3875ZM413.1212 349.45L412.0118 349.45L412.0118 345.71564Q412.0118 345.27814 411.9493 344.8875Q411.90244 344.48126 411.7618 344.2625Q411.6212 344.0125 411.33994 343.90314Q411.0743 343.77814 410.6368 343.77814Q410.1837 343.77814 409.6837 343.9969Q409.1993 344.21564 408.7462 344.5594L408.7462 349.45L407.6368 349.45L407.6368 340.325L408.7462 340.325L408.7462 343.6375Q409.2618 343.2 409.8087 342.96564Q410.35556 342.71564 410.9493 342.71564Q411.9962 342.71564 412.5587 343.35626Q413.1212 343.9969 413.1212 345.2L413.1212 349.45ZM421.1212 346.29376L416.29306 346.29376Q416.29306 346.8875 416.48056 347.34064Q416.66806 347.79376 416.98056 348.075Q417.27744 348.35626 417.6993 348.4969Q418.1212 348.6375 418.6212 348.6375Q419.29306 348.6375 419.96494 348.3719Q420.65244 348.10626 420.9337 347.85626L420.9962 347.85626L420.9962 349.04376Q420.4337 349.27814 419.85556 349.45Q419.27744 349.60626 418.6368 349.60626Q417.0118 349.60626 416.08994 348.73126Q415.1837 347.84064 415.1837 346.21564Q415.1837 344.60626 416.0587 343.66876Q416.9337 342.71564 418.35556 342.71564Q419.6837 342.71564 420.40244 343.4969Q421.1212 344.2625 421.1212 345.7L421.1212 346.29376ZM420.04306 345.45Q420.04306 344.575 419.60556 344.10626Q419.1837 343.6375 418.3087 343.6375Q417.41806 343.6375 416.8868 344.15314Q416.3712 344.66876 416.29306 345.45L420.04306 345.45ZM426.73056 344.10626L426.66806 344.10626Q426.41806 344.04376 426.1837 344.02814Q425.96494 343.9969 425.6368 343.9969Q425.1368 343.9969 424.65244 344.23126Q424.1837 344.45 423.7462 344.8094L423.7462 349.45L422.6368 349.45L422.6368 342.90314L423.7462 342.90314L423.7462 343.8719Q424.40244 343.34064 424.90244 343.1219Q425.40244 342.90314 425.91806 342.90314Q426.21494 342.90314 426.33994 342.91876Q426.46494 342.9344 426.73056 342.98126L426.73056 344.10626Z" fill-rule="nonzero"/><path fill="#cccccc" d="M516.45 59.916668C516.45 59.364384 516.8977 58.916668 517.45 58.916668L527.45 58.916668C528.00226 58.916668 528.45 59.364384 528.45 59.916668L528.45 69.916664C528.45 70.46895 528.00226 70.916664 527.45 70.916664L517.45 70.916664C516.8977 70.916664 516.45 70.46895 516.45 69.916664Z" fill-rule="nonzero"/><path fill="#1a1a1a" d="M547.09064 69.916664L545.98126 69.916664L545.98126 66.18229Q545.98126 65.760414 545.9344 65.36979Q545.90314 64.979164 545.77814 64.74479Q545.65314 64.49479 545.40314 64.36979Q545.15314 64.24479 544.66876 64.24479Q544.21564 64.24479 543.7469 64.479164Q543.27814 64.697914 542.825 65.05729Q542.84064 65.197914 542.84064 65.385414Q542.85626 65.55729 542.85626 65.729164L542.85626 69.916664L541.7625 69.916664L541.7625 66.18229Q541.7625 65.760414 541.71564 65.36979Q541.6844 64.979164 541.5594 64.74479Q541.41876 64.49479 541.16876 64.36979Q540.91876 64.24479 540.45 64.24479Q539.9969 64.24479 539.54376 64.46354Q539.09064 64.68229 538.6375 65.02604L538.6375 69.916664L537.52814 69.916664L537.52814 63.36979L538.6375 63.36979L538.6375 64.104164Q539.15314 63.666664 539.66876 63.43229Q540.1844 63.18229 540.7625 63.18229Q541.41876 63.18229 541.8875 63.46354Q542.35626 63.74479 542.59064 64.24479Q543.2469 63.68229 543.79376 63.43229Q544.35626 63.18229 544.98126 63.18229Q546.0594 63.18229 546.575 63.83854Q547.09064 64.49479 547.09064 65.666664L547.09064 69.916664ZM550.71564 62.27604L549.48126 62.27604L549.48126 61.135414L550.71564 61.135414L550.71564 62.27604ZM550.65314 69.916664L549.54376 69.916664L549.54376 63.36979L550.65314 63.36979L550.65314 69.916664ZM557.21564 68.02604Q557.21564 68.93229 556.46564 69.510414Q555.73126 70.072914 554.45 70.072914Q553.71564 70.072914 553.10626 69.90104Q552.5125 69.729164 552.09064 69.52604L552.09064 68.291664L552.15314 68.291664Q552.66876 68.68229 553.3094 68.916664Q553.95 69.135414 554.54376 69.135414Q555.2625 69.135414 555.66876 68.90104Q556.09064 68.666664 556.09064 68.166664Q556.09064 67.77604 555.85626 67.58854Q555.6375 67.385414 555.0125 67.24479Q554.77814 67.197914 554.3875 67.135414Q554.0125 67.05729 553.7 66.96354Q552.84064 66.74479 552.48126 66.30729Q552.1219 65.854164 552.1219 65.21354Q552.1219 64.80729 552.29376 64.447914Q552.46564 64.08854 552.79376 63.80729Q553.1219 63.541664 553.6219 63.385414Q554.1375 63.21354 554.7625 63.21354Q555.35626 63.21354 555.95 63.354164Q556.5594 63.49479 556.95 63.697914L556.95 64.885414L556.8875 64.885414Q556.46564 64.572914 555.85626 64.36979Q555.2625 64.15104 554.6844 64.15104Q554.075 64.15104 553.65314 64.385414Q553.2469 64.604164 553.2469 65.05729Q553.2469 65.46354 553.4969 65.666664Q553.7469 65.885414 554.29376 66.010414Q554.60626 66.072914 554.98126 66.15104Q555.35626 66.21354 555.60626 66.27604Q556.3719 66.447914 556.79376 66.885414Q557.21564 67.30729 557.21564 68.02604ZM563.21564 68.02604Q563.21564 68.93229 562.46564 69.510414Q561.73126 70.072914 560.45 70.072914Q559.71564 70.072914 559.10626 69.90104Q558.5125 69.729164 558.09064 69.52604L558.09064 68.291664L558.15314 68.291664Q558.66876 68.68229 559.3094 68.916664Q559.95 69.135414 560.54376 69.135414Q561.2625 69.135414 561.66876 68.90104Q562.09064 68.666664 562.09064 68.166664Q562.09064 67.77604 561.85626 67.58854Q561.6375 67.385414 561.0125 67.24479Q560.77814 67.197914 560.3875 67.135414Q560.0125 67.05729 559.7 66.96354Q558.84064 66.74479 558.48126 66.30729Q558.1219 65.854164 558.1219 65.21354Q558.1219 64.80729 558.29376 64.447914Q558.46564 64.08854 558.79376 63.80729Q559.1219 63.541664 559.6219 63.385414Q560.1375 63.21354 560.7625 63.21354Q561.35626 63.21354 561.95 63.354164Q562.5594 63.49479 562.95 63.697914L562.95 64.885414L562.8875 64.885414Q562.46564 64.572914 561.85626 64.36979Q561.2625 64.15104 560.6844 64.15104Q560.075 64.15104 559.65314 64.385414Q559.2469 64.604164 559.2469 65.05729Q559.2469 65.46354 559.4969 65.666664Q559.7469 65.885414 560.29376 66.010414Q560.60626 66.072914 560.98126 66.15104Q561.35626 66.21354 561.60626 66.27604Q562.3719 66.447914 562.79376 66.885414Q563.21564 67.30729 563.21564 68.02604ZM565.71564 62.27604L564.48126 62.27604L564.48126 61.135414L565.71564 61.135414L565.71564 62.27604ZM565.65314 69.916664L564.54376 69.916664L564.54376 63.36979L565.65314 63.36979L565.65314 69.916664ZM573.0125 69.916664L571.90314 69.916664L571.90314 66.18229Q571.90314 65.74479 571.84064 65.354164Q571.79376 64.947914 571.65314 64.729164Q571.5125 64.479164 571.23126 64.36979Q570.96564 64.24479 570.52814 64.24479Q570.075 64.24479 569.575 64.46354Q569.09064 64.68229 568.6375 65.02604L568.6375 69.916664L567.52814 69.916664L567.52814 63.36979L568.6375 63.36979L568.6375 64.104164Q569.15314 63.666664 569.7 63.43229Q570.2469 63.18229 570.84064 63.18229Q571.8875 63.18229 572.45 63.822914Q573.0125 64.46354 573.0125 65.666664L573.0125 69.916664ZM580.84064 69.166664Q580.84064 70.83854 580.075 71.61979Q579.325 72.40104 577.7625 72.40104Q577.2469 72.40104 576.7469 72.322914Q576.2469 72.24479 575.7625 72.11979L575.7625 70.99479L575.825 70.99479Q576.09064 71.08854 576.66876 71.24479Q577.2625 71.40104 577.85626 71.40104Q578.41876 71.40104 578.77814 71.260414Q579.15314 71.135414 579.35626 70.90104Q579.5594 70.666664 579.65314 70.33854Q579.7469 70.02604 579.7469 69.61979L579.7469 69.02604Q579.2469 69.416664 578.79376 69.61979Q578.34064 69.822914 577.6375 69.822914Q576.46564 69.822914 575.77814 68.979164Q575.09064 68.11979 575.09064 66.58854Q575.09064 65.74479 575.325 65.135414Q575.5594 64.510414 575.96564 64.072914Q576.35626 63.65104 576.8875 63.416664Q577.4344 63.18229 577.98126 63.18229Q578.54376 63.18229 578.91876 63.30729Q579.3094 63.416664 579.7469 63.65104L579.8094 63.36979L580.84064 63.36979L580.84064 69.166664ZM579.7469 68.11979L579.7469 64.541664Q579.3094 64.354164 578.91876 64.27604Q578.54376 64.18229 578.16876 64.18229Q577.2625 64.18229 576.73126 64.791664Q576.21564 65.40104 576.21564 66.55729Q576.21564 67.666664 576.60626 68.229164Q576.9969 68.791664 577.8875 68.791664Q578.3719 68.791664 578.85626 68.61979Q579.34064 68.43229 579.7469 68.11979Z" fill-rule="nonzero"/><path fill="#4285f4" d="M516.45 85.916664C516.45 85.36438 516.8977 84.916664 517.45 84.916664L527.45 84.916664C528.00226 84.916664 528.45 85.36438 528.45 85.916664L528.45 95.916664C528.45 96.46895 528.00226 96.916664 527.45 96.916664L517.45 96.916664C516.8977 96.916664 516.45 96.46895 516.45 95.916664Z" fill-rule="nonzero"/><path fill="#1a1a1a" d="M542.6219 95.916664L541.52814 95.916664L541.52814 95.21354Q541.3719 95.322914 541.1219 95.510414Q540.8875 95.68229 540.65314 95.77604Q540.3719 95.916664 540.0125 96.010414Q539.65314 96.104164 539.16876 96.104164Q538.29376 96.104164 537.66876 95.52604Q537.0594 94.93229 537.0594 94.010414Q537.0594 93.27604 537.3719 92.822914Q537.7 92.354164 538.29376 92.08854Q538.8875 91.822914 539.71564 91.729164Q540.5594 91.635414 541.52814 91.58854L541.52814 91.416664Q541.52814 91.041664 541.3875 90.80729Q541.2625 90.55729 541.0125 90.416664Q540.77814 90.27604 540.45 90.229164Q540.1219 90.18229 539.7625 90.18229Q539.34064 90.18229 538.79376 90.30729Q538.2625 90.416664 537.7 90.635414L537.6375 90.635414L537.6375 89.510414Q537.96564 89.416664 538.575 89.322914Q539.1844 89.21354 539.77814 89.21354Q540.46564 89.21354 540.98126 89.33854Q541.4969 89.447914 541.8719 89.71354Q542.23126 89.979164 542.41876 90.416664Q542.6219 90.83854 542.6219 91.479164L542.6219 95.916664ZM541.52814 94.30729L541.52814 92.479164Q541.02814 92.510414 540.34064 92.572914Q539.65314 92.635414 539.2625 92.74479Q538.77814 92.86979 538.48126 93.166664Q538.2 93.447914 538.2 93.947914Q538.2 94.510414 538.52814 94.791664Q538.8719 95.072914 539.575 95.072914Q540.15314 95.072914 540.6375 94.854164Q541.1219 94.61979 541.52814 94.30729ZM548.6219 90.572914L548.5594 90.572914Q548.3094 90.510414 548.075 90.49479Q547.85626 90.46354 547.52814 90.46354Q547.02814 90.46354 546.54376 90.697914Q546.075 90.916664 545.6375 91.27604L545.6375 95.916664L544.52814 95.916664L544.52814 89.36979L545.6375 89.36979L545.6375 90.33854Q546.29376 89.80729 546.79376 89.58854Q547.29376 89.36979 547.8094 89.36979Q548.10626 89.36979 548.23126 89.385414Q548.35626 89.40104 548.6219 89.447914L548.6219 90.572914ZM553.6219 90.572914L553.5594 90.572914Q553.3094 90.510414 553.075 90.49479Q552.85626 90.46354 552.52814 90.46354Q552.02814 90.46354 551.54376 90.697914Q551.075 90.916664 550.6375 91.27604L550.6375 95.916664L549.52814 95.916664L549.52814 89.36979L550.6375 89.36979L550.6375 90.33854Q551.29376 89.80729 551.79376 89.58854Q552.29376 89.36979 552.8094 89.36979Q553.10626 89.36979 553.23126 89.385414Q553.35626 89.40104 553.6219 89.447914L553.6219 90.572914ZM555.71564 88.27604L554.48126 88.27604L554.48126 87.135414L555.71564 87.135414L555.71564 88.27604ZM555.65314 95.916664L554.54376 95.916664L554.54376 89.36979L555.65314 89.36979L555.65314 95.916664ZM563.2 89.36979L560.54376 95.916664L559.4344 95.916664L556.8094 89.36979L557.9969 89.36979L560.02814 94.572914L562.04376 89.36979L563.2 89.36979ZM570.0125 92.760414L565.1844 92.760414Q565.1844 93.354164 565.3719 93.80729Q565.5594 94.260414 565.8719 94.541664Q566.16876 94.822914 566.59064 94.96354Q567.0125 95.104164 567.5125 95.104164Q568.1844 95.104164 568.85626 94.83854Q569.54376 94.572914 569.825 94.322914L569.8875 94.322914L569.8875 95.510414Q569.325 95.74479 568.7469 95.916664Q568.16876 96.072914 567.52814 96.072914Q565.90314 96.072914 564.98126 95.197914Q564.075 94.30729 564.075 92.68229Q564.075 91.072914 564.95 90.135414Q565.825 89.18229 567.2469 89.18229Q568.575 89.18229 569.29376 89.96354Q570.0125 90.729164 570.0125 92.166664L570.0125 92.760414ZM568.9344 91.916664Q568.9344 91.041664 568.4969 90.572914Q568.075 90.104164 567.2 90.104164Q566.3094 90.104164 565.77814 90.61979Q565.2625 91.135414 565.1844 91.916664L568.9344 91.916664ZM576.84064 95.916664L575.7469 95.916664L575.7469 95.229164Q575.2625 95.635414 574.7469 95.86979Q574.23126 96.104164 573.6375 96.104164Q572.46564 96.104164 571.77814 95.197914Q571.09064 94.291664 571.09064 92.697914Q571.09064 91.854164 571.325 91.21354Q571.5594 90.55729 571.96564 90.104164Q572.35626 89.65104 572.8875 89.416664Q573.41876 89.18229 573.9969 89.18229Q574.5125 89.18229 574.90314 89.291664Q575.3094 89.40104 575.7469 89.635414L575.7469 86.791664L576.84064 86.791664L576.84064 95.916664ZM575.7469 94.30729L575.7469 90.541664Q575.29376 90.354164 574.9344 90.27604Q574.59064 90.197914 574.1844 90.197914Q573.2469 90.197914 572.73126 90.83854Q572.21564 91.479164 572.21564 92.666664Q572.21564 93.83854 572.60626 94.447914Q573.0125 95.041664 573.90314 95.041664Q574.3719 95.041664 574.84064 94.83854Q575.325 94.635414 575.7469 94.30729Z" fill-rule="nonzero"/><path fill="#757575" d="M26.846874 36.690624L26.846874 34.409374Q26.14375 34.45625 25.3 34.565624Q24.471874 34.659374 24.05 34.8Q23.51875 34.971874 23.2375 35.284374Q22.971874 35.596874 22.971874 36.128124Q22.971874 36.45625 23.01875 36.675Q23.08125 36.89375 23.315624 37.08125Q23.534374 37.284374 23.846874 37.378124Q24.159374 37.471874 24.83125 37.471874Q25.3625 37.471874 25.89375 37.253124Q26.440624 37.034374 26.846874 36.690624ZM26.846874 38.39375Q26.565624 38.596874 26.14375 38.909374Q25.721874 39.20625 25.3625 39.378124Q24.846874 39.6125 24.284374 39.721874Q23.721874 39.846874 23.065624 39.846874Q21.503124 39.846874 20.440624 38.878124Q19.39375 37.909374 19.39375 36.409374Q19.39375 35.20625 19.925 34.440624Q20.471874 33.675 21.45625 33.2375Q22.425 32.8 23.8625 32.6125Q25.315624 32.425 26.878124 32.346874L26.878124 32.284374Q26.878124 31.378124 26.128124 31.034374Q25.39375 30.675 23.940624 30.675Q23.065624 30.675 22.08125 30.9875Q21.096874 31.3 20.675 31.45625L20.346874 31.45625L20.346874 28.815624Q20.909374 28.675 22.159374 28.471874Q23.409374 28.26875 24.675 28.26875Q27.675 28.26875 29.003124 29.190624Q30.33125 30.1125 30.33125 32.08125L30.33125 39.55L26.846874 39.55L26.846874 38.39375ZM44.253124 28.58125L40.034374 39.55L36.05 39.55L31.846874 28.58125L35.565624 28.58125L38.096874 36.128124L40.6125 28.58125L44.253124 28.58125ZM57.425 34.065624Q57.425 36.76875 55.846874 38.33125Q54.26875 39.89375 51.409374 39.89375Q48.565624 39.89375 46.9875 38.33125Q45.409374 36.76875 45.409374 34.065624Q45.409374 31.346874 46.9875 29.8Q48.58125 28.2375 51.409374 28.2375Q54.284374 28.2375 55.846874 29.8Q57.425 31.3625 57.425 34.065624ZM53.096874 36.7375Q53.440624 36.315624 53.6125 35.721874Q53.784374 35.128124 53.784374 34.096874Q53.784374 33.128124 53.596874 32.471874Q53.425 31.815624 53.1125 31.425Q52.8 31.01875 52.3625 30.8625Q51.925 30.690624 51.409374 30.690624Q50.909374 30.690624 50.503124 30.83125Q50.1125 30.971874 49.753124 31.378124Q49.440624 31.753124 49.2375 32.425Q49.05 33.08125 49.05 34.096874Q49.05 34.9875 49.20625 35.64375Q49.378124 36.3 49.70625 36.70625Q50.01875 37.08125 50.45625 37.26875Q50.89375 37.440624 51.440624 37.440624Q51.925 37.440624 52.3625 37.284374Q52.8 37.1125 53.096874 36.7375ZM63.721874 39.55L60.20625 39.55L60.20625 28.58125L63.721874 28.58125L63.721874 39.55ZM63.83125 27.01875L60.1125 27.01875L60.1125 24.346874L63.83125 24.346874L63.83125 27.01875ZM77.87813 39.55L74.3625 39.55L74.3625 38.409374Q73.45625 39.14375 72.65938 39.503124Q71.8625 39.846874 70.83125 39.846874Q68.83125 39.846874 67.62813 38.315624Q66.425 36.76875 66.425 34.14375Q66.425 32.753124 66.83125 31.675Q67.2375 30.596874 67.94063 29.815624Q68.6125 29.096874 69.55 28.690624Q70.50313 28.284374 71.45625 28.284374Q72.44063 28.284374 73.06563 28.503124Q73.69063 28.70625 74.3625 29.01875L74.3625 24.346874L77.87813 24.346874L77.87813 39.55ZM74.3625 36.51875L74.3625 31.14375Q73.9875 30.9875 73.58125 30.925Q73.175 30.846874 72.83125 30.846874Q71.44063 30.846874 70.7375 31.721874Q70.05 32.58125 70.05 34.1125Q70.05 35.721874 70.59688 36.45625Q71.15938 37.175 72.39375 37.175Q72.87813 37.175 73.40938 37.003124Q73.95625 36.815624 74.3625 36.51875ZM84.72188 39.55L81.20625 39.55L81.20625 28.58125L84.72188 28.58125L84.72188 39.55ZM84.83125 27.01875L81.1125 27.01875L81.1125 24.346874L84.83125 24.346874L84.83125 27.01875ZM99.22188 39.55L95.69063 39.55L95.69063 34.1125Q95.69063 33.440624 95.6125 32.784374Q95.55 32.128124 95.39375 31.815624Q95.19063 31.45625 94.81563 31.3Q94.44063 31.128124 93.76875 31.128124Q93.28438 31.128124 92.78438 31.284374Q92.3 31.440624 91.72188 31.76875L91.72188 39.55L88.20625 39.55L88.20625 28.58125L91.72188 28.58125L91.72188 29.8Q92.65938 29.065624 93.51875 28.675Q94.39375 28.284374 95.44063 28.284374Q97.22188 28.284374 98.22188 29.315624Q99.22188 30.346874 99.22188 32.409374L99.22188 39.55ZM112.87813 38.284374Q112.87813 39.83125 112.44063 40.878124Q112.00313 41.940624 111.20625 42.534374Q110.40938 43.14375 109.28438 43.409374Q108.175 43.675 106.76875 43.675Q105.62813 43.675 104.51875 43.534374Q103.40938 43.409374 102.59688 43.20625L102.59688 40.471874L103.03438 40.471874Q103.675 40.721874 104.59688 40.925Q105.53438 41.14375 106.26875 41.14375Q107.2375 41.14375 107.84688 40.95625Q108.45625 40.784374 108.78438 40.45625Q109.08125 40.14375 109.22188 39.64375Q109.3625 39.159374 109.3625 38.471874L109.3625 38.26875Q108.72188 38.784374 107.94063 39.096874Q107.175 39.39375 106.2375 39.39375Q103.925 39.39375 102.675 38.003124Q101.425 36.6125 101.425 33.784374Q101.425 32.425 101.8 31.440624Q102.19063 30.45625 102.87813 29.721874Q103.53438 29.034374 104.47188 28.659374Q105.40938 28.284374 106.39375 28.284374Q107.28438 28.284374 108.00313 28.503124Q108.7375 28.70625 109.34688 29.065624L109.47188 28.58125L112.87813 28.58125L112.87813 38.284374ZM109.3625 36.096874L109.3625 31.128124Q109.05 30.9875 108.6125 30.925Q108.175 30.846874 107.83125 30.846874Q106.44063 30.846874 105.7375 31.64375Q105.05 32.440624 105.05 33.8625Q105.05 35.440624 105.64375 36.065624Q106.2375 36.690624 107.39375 36.690624Q107.925 36.690624 108.425 36.534374Q108.94063 36.3625 109.3625 36.096874ZM129.84688 36.690624L129.84688 34.409374Q129.14375 34.45625 128.3 34.565624Q127.47188 34.659374 127.05 34.8Q126.51875 34.971874 126.2375 35.284374Q125.97188 35.596874 125.97188 36.128124Q125.97188 36.45625 126.01875 36.675Q126.08125 36.89375 126.31563 37.08125Q126.53438 37.284374 126.84688 37.378124Q127.15938 37.471874 127.83125 37.471874Q128.3625 37.471874 128.89375 37.253124Q129.44063 37.034374 129.84688 36.690624ZM129.84688 38.39375Q129.56563 38.596874 129.14375 38.909374Q128.72188 39.20625 128.3625 39.378124Q127.84688 39.6125 127.28438 39.721874Q126.72188 39.846874 126.06563 39.846874Q124.50313 39.846874 123.44063 38.878124Q122.39375 37.909374 122.39375 36.409374Q122.39375 35.20625 122.925 34.440624Q123.47188 33.675 124.45625 33.2375Q125.425 32.8 126.8625 32.6125Q128.31563 32.425 129.87813 32.346874L129.87813 32.284374Q129.87813 31.378124 129.12813 31.034374Q128.39375 30.675 126.94063 30.675Q126.06563 30.675 125.08125 30.9875Q124.09688 31.3 123.675 31.45625L123.34688 31.45625L123.34688 28.815624Q123.90938 28.675 125.15938 28.471874Q126.40938 28.26875 127.675 28.26875Q130.675 28.26875 132.00313 29.190624Q133.33125 30.1125 133.33125 32.08125L133.33125 39.55L129.84688 39.55L129.84688 38.39375ZM147.65938 33.909374Q147.65938 36.503124 146.22188 38.14375Q144.8 39.76875 142.65938 39.76875Q141.7375 39.76875 141.03438 39.565624Q140.34688 39.378124 139.72188 39.003124L139.58125 39.55L136.20625 39.55L136.20625 24.346874L139.72188 24.346874L139.72188 29.721874Q140.53438 29.08125 141.37813 28.690624Q142.22188 28.284374 143.33125 28.284374Q145.40938 28.284374 146.53438 29.784374Q147.65938 31.284374 147.65938 33.909374ZM144.03438 33.9875Q144.03438 32.51875 143.53438 31.7375Q143.03438 30.940624 141.75313 30.940624Q141.25313 30.940624 140.72188 31.096874Q140.20625 31.2375 139.72188 31.51875L139.72188 37.034374Q140.1125 37.159374 140.44063 37.221874Q140.78438 37.26875 141.26875 37.26875Q142.65938 37.26875 143.34688 36.45625Q144.03438 35.628124 144.03438 33.9875ZM156.84688 36.690624L156.84688 34.409374Q156.14375 34.45625 155.3 34.565624Q154.47188 34.659374 154.05 34.8Q153.51875 34.971874 153.2375 35.284374Q152.97188 35.596874 152.97188 36.128124Q152.97188 36.45625 153.01875 36.675Q153.08125 36.89375 153.31563 37.08125Q153.53438 37.284374 153.84688 37.378124Q154.15938 37.471874 154.83125 37.471874Q155.3625 37.471874 155.89375 37.253124Q156.44063 37.034374 156.84688 36.690624ZM156.84688 38.39375Q156.56563 38.596874 156.14375 38.909374Q155.72188 39.20625 155.3625 39.378124Q154.84688 39.6125 154.28438 39.721874Q153.72188 39.846874 153.06563 39.846874Q151.50313 39.846874 150.44063 38.878124Q149.39375 37.909374 149.39375 36.409374Q149.39375 35.20625 149.925 34.440624Q150.47188 33.675 151.45625 33.2375Q152.425 32.8 153.8625 32.6125Q155.31563 32.425 156.87813 32.346874L156.87813 32.284374Q156.87813 31.378124 156.12813 31.034374Q155.39375 30.675 153.94063 30.675Q153.06563 30.675 152.08125 30.9875Q151.09688 31.3 150.675 31.45625L150.34688 31.45625L150.34688 28.815624Q150.90938 28.675 152.15938 28.471874Q153.40938 28.26875 154.675 28.26875Q157.675 28.26875 159.00313 29.190624Q160.33125 30.1125 160.33125 32.08125L160.33125 39.55L156.84688 39.55L156.84688 38.39375ZM174.22188 39.55L170.69063 39.55L170.69063 34.1125Q170.69063 33.440624 170.6125 32.784374Q170.55 32.128124 170.39375 31.815624Q170.19063 31.45625 169.81563 31.3Q169.44063 31.128124 168.76875 31.128124Q168.28438 31.128124 167.78438 31.284374Q167.3 31.440624 166.72188 31.76875L166.72188 39.55L163.20625 39.55L163.20625 28.58125L166.72188 28.58125L166.72188 29.8Q167.65938 29.065624 168.51875 28.675Q169.39375 28.284374 170.44063 28.284374Q172.22188 28.284374 173.22188 29.315624Q174.22188 30.346874 174.22188 32.409374L174.22188 39.55ZM187.87813 39.55L184.3625 39.55L184.3625 38.409374Q183.45625 39.14375 182.65938 39.503124Q181.8625 39.846874 180.83125 39.846874Q178.83125 39.846874 177.62813 38.315624Q176.425 36.76875 176.425 34.14375Q176.425 32.753124 176.83125 31.675Q177.2375 30.596874 177.94063 29.815624Q178.6125 29.096874 179.55 28.690624Q180.50313 28.284374 181.45625 28.284374Q182.44063 28.284374 183.06563 28.503124Q183.69063 28.70625 184.3625 29.01875L184.3625 24.346874L187.87813 24.346874L187.87813 39.55ZM184.3625 36.51875L184.3625 31.14375Q183.9875 30.9875 183.58125 30.925Q183.175 30.846874 182.83125 30.846874Q181.44063 30.846874 180.7375 31.721874Q180.05 32.58125 180.05 34.1125Q180.05 35.721874 180.59688 36.45625Q181.15938 37.175 182.39375 37.175Q182.87813 37.175 183.40938 37.003124Q183.95625 36.815624 184.3625 36.51875ZM202.425 34.065624Q202.425 36.76875 200.84688 38.33125Q199.26875 39.89375 196.40938 39.89375Q193.56563 39.89375 191.9875 38.33125Q190.40938 36.76875 190.40938 34.065624Q190.40938 31.346874 191.9875 29.8Q193.58125 28.2375 196.40938 28.2375Q199.28438 28.2375 200.84688 29.8Q202.425 31.3625 202.425 34.065624ZM198.09688 36.7375Q198.44063 36.315624 198.6125 35.721874Q198.78438 35.128124 198.78438 34.096874Q198.78438 33.128124 198.59688 32.471874Q198.425 31.815624 198.1125 31.425Q197.8 31.01875 197.3625 30.8625Q196.925 30.690624 196.40938 30.690624Q195.90938 30.690624 195.50313 30.83125Q195.1125 30.971874 194.75313 31.378124Q194.44063 31.753124 194.2375 32.425Q194.05 33.08125 194.05 34.096874Q194.05 34.9875 194.20625 35.64375Q194.37813 36.3 194.70625 36.70625Q195.01875 37.08125 195.45625 37.26875Q195.89375 37.440624 196.44063 37.440624Q196.925 37.440624 197.3625 37.284374Q197.8 37.1125 198.09688 36.7375ZM216.22188 39.55L212.69063 39.55L212.69063 34.1125Q212.69063 33.440624 212.6125 32.784374Q212.55 32.128124 212.39375 31.815624Q212.19063 31.45625 211.81563 31.3Q211.44063 31.128124 210.76875 31.128124Q210.28438 31.128124 209.78438 31.284374Q209.3 31.440624 208.72188 31.76875L208.72188 39.55L205.20625 39.55L205.20625 28.58125L208.72188 28.58125L208.72188 29.8Q209.65938 29.065624 210.51875 28.675Q211.39375 28.284374 212.44063 28.284374Q214.22188 28.284374 215.22188 29.315624Q216.22188 30.346874 216.22188 32.409374L216.22188 39.55ZM228.7375 36.065624Q228.7375 37.76875 227.20625 38.815624Q225.69063 39.846874 223.05 39.846874Q221.58125 39.846874 220.39375 39.565624Q219.20625 39.3 218.47188 38.971874L218.47188 36.08125L218.8 36.08125Q219.06563 36.26875 219.40938 36.4875Q219.75313 36.70625 220.39375 36.95625Q220.94063 37.190624 221.62813 37.346874Q222.33125 37.503124 223.1125 37.503124Q224.15938 37.503124 224.64375 37.284374Q225.14375 37.05 225.14375 36.596874Q225.14375 36.20625 224.84688 36.01875Q224.56563 35.83125 223.7375 35.675Q223.34688 35.58125 222.675 35.4875Q222.01875 35.378124 221.47188 35.2375Q219.97188 34.846874 219.25313 34.01875Q218.53438 33.190624 218.53438 31.95625Q218.53438 30.378124 220.01875 29.33125Q221.51875 28.284374 224.12813 28.284374Q225.34688 28.284374 226.47188 28.534374Q227.6125 28.784374 228.2375 29.065624L228.2375 31.83125L227.94063 31.83125Q227.15938 31.3 226.15938 30.971874Q225.15938 30.628124 224.12813 30.628124Q223.28438 30.628124 222.70625 30.8625Q222.12813 31.096874 222.12813 31.51875Q222.12813 31.909374 222.37813 32.1125Q222.64375 32.315624 223.62813 32.534374Q224.15938 32.628124 224.78438 32.7375Q225.40938 32.846874 226.03438 33.003124Q227.40938 33.3625 228.06563 34.14375Q228.7375 34.909374 228.7375 36.065624Z" fill-rule="nonzero"/></svg>